<?xml version="1.0" encoding="UTF-8"?><svg xmlns="http://www.w3.org/2000/svg" xmlns:xlink="http://www.w3.org/1999/xlink" fill-opacity="1" color-rendering="auto" color-interpolation="auto" text-rendering="auto" stroke="black" stroke-linecap="square" width="1030" stroke-miterlimit="10" shape-rendering="auto" stroke-opacity="1" fill="black" stroke-dasharray="none" font-weight="normal" stroke-width="1" height="631" font-family="'Dialog'" font-style="normal" stroke-linejoin="miter" font-size="12px" stroke-dashoffset="0" image-rendering="auto">
  <!--Generated by ySVG 2.5-->
  <defs id="genericDefs"/>
  <g>
    <defs id="defs1">
      <clipPath clipPathUnits="userSpaceOnUse" id="clipPath1">
        <path d="M0 0 L1030 0 L1030 631 L0 631 L0 0 Z"/>
      </clipPath>
      <clipPath clipPathUnits="userSpaceOnUse" id="clipPath2">
        <path d="M541 22 L1571 22 L1571 653 L541 653 L541 22 Z"/>
      </clipPath>
      <clipPath clipPathUnits="userSpaceOnUse" id="clipPath3">
        <path d="M558 243.7933 L558 432.0433 L1554 432.0433 L1554 243.7933 Z"/>
      </clipPath>
    </defs>
    <g fill="white" text-rendering="geometricPrecision" shape-rendering="geometricPrecision" transform="translate(-541,-22)" stroke="white">
      <rect x="541" width="1030" height="631" y="22" clip-path="url(#clipPath2)" stroke="none"/>
    </g>
    <g text-rendering="geometricPrecision" shape-rendering="geometricPrecision" transform="matrix(1,0,0,1,-541,-22)">
      <path d="M585.4922 275.6683 L601.2734 275.6683 L601.2734 392.309 L585.4922 392.309 L585.4922 275.6683 ZM704.7891 339.4965 L704.7891 392.309 L690.4141 392.309 L690.4141 339.9652 Q690.4141 327.5433 685.5703 321.3715 Q680.7266 315.1996 671.0391 315.1996 Q659.3984 315.1996 652.6797 322.6215 Q645.9609 330.0433 645.9609 342.8558 L645.9609 392.309 L631.5078 392.309 L631.5078 304.809 L645.9609 304.809 L645.9609 318.4027 Q651.1172 310.5121 658.1094 306.6058 Q665.1016 302.6996 674.2422 302.6996 Q689.3203 302.6996 697.0547 312.0355 Q704.7891 321.3715 704.7891 339.4965 ZM747.6797 279.9652 L747.6797 304.809 L777.2891 304.809 L777.2891 315.9808 L747.6797 315.9808 L747.6797 363.4808 Q747.6797 374.184 750.6094 377.2308 Q753.5391 380.2777 762.5234 380.2777 L777.2891 380.2777 L777.2891 392.309 L762.5234 392.309 Q745.8828 392.309 739.5547 386.098 Q733.2266 379.8871 733.2266 363.4808 L733.2266 315.9808 L722.6797 315.9808 L722.6797 304.809 L733.2266 304.809 L733.2266 279.9652 L747.6797 279.9652 ZM846.8984 318.2465 Q844.4766 316.8402 841.625 316.1761 Q838.7734 315.5121 835.3359 315.5121 Q823.1484 315.5121 816.625 323.4418 Q810.1016 331.3715 810.1016 346.2152 L810.1016 392.309 L795.6484 392.309 L795.6484 304.809 L810.1016 304.809 L810.1016 318.4027 Q814.6328 310.434 821.8984 306.5668 Q829.1641 302.6996 839.5547 302.6996 Q841.0391 302.6996 842.8359 302.8949 Q844.6328 303.0902 846.8203 303.4808 L846.8984 318.2465 ZM895.8828 314.8871 Q884.3203 314.8871 877.6016 323.9105 Q870.8828 332.934 870.8828 348.6371 Q870.8828 364.3402 877.5625 373.3636 Q884.2422 382.3871 895.8828 382.3871 Q907.3672 382.3871 914.0859 373.3246 Q920.8047 364.2621 920.8047 348.6371 Q920.8047 333.0902 914.0859 323.9886 Q907.3672 314.8871 895.8828 314.8871 ZM895.8828 302.6996 Q914.6328 302.6996 925.3359 314.8871 Q936.0391 327.0746 936.0391 348.6371 Q936.0391 370.1215 925.3359 382.348 Q914.6328 394.5746 895.8828 394.5746 Q877.0547 394.5746 866.3906 382.348 Q855.7266 370.1215 855.7266 348.6371 Q855.7266 327.0746 866.3906 314.8871 Q877.0547 302.6996 895.8828 302.6996 ZM1017.4453 318.0902 L1017.4453 270.7465 L1031.8203 270.7465 L1031.8203 392.309 L1017.4453 392.309 L1017.4453 379.184 Q1012.9141 386.9965 1006 390.7855 Q999.0859 394.5746 989.3984 394.5746 Q973.5391 394.5746 963.5781 381.9183 Q953.6172 369.2621 953.6172 348.6371 Q953.6172 328.0121 963.5781 315.3558 Q973.5391 302.6996 989.3984 302.6996 Q999.0859 302.6996 1006 306.4886 Q1012.9141 310.2777 1017.4453 318.0902 ZM968.4609 348.6371 Q968.4609 364.4965 974.9844 373.5199 Q981.5078 382.5433 992.9141 382.5433 Q1004.3203 382.5433 1010.8828 373.5199 Q1017.4453 364.4965 1017.4453 348.6371 Q1017.4453 332.7777 1010.8828 323.7543 Q1004.3203 314.7308 992.9141 314.7308 Q981.5078 314.7308 974.9844 323.7543 Q968.4609 332.7777 968.4609 348.6371 ZM1059.9453 357.7777 L1059.9453 304.809 L1074.3203 304.809 L1074.3203 357.2308 Q1074.3203 369.6527 1079.1641 375.8636 Q1084.0078 382.0746 1093.6953 382.0746 Q1105.3359 382.0746 1112.0938 374.6527 Q1118.8516 367.2308 1118.8516 354.4183 L1118.8516 304.809 L1133.2266 304.809 L1133.2266 392.309 L1118.8516 392.309 L1118.8516 378.8715 Q1113.6172 386.8402 1106.7031 390.7074 Q1099.7891 394.5746 1090.6484 394.5746 Q1075.5703 394.5746 1067.7578 385.1996 Q1059.9453 375.8246 1059.9453 357.7777 ZM1225.8047 308.1683 L1225.8047 321.6058 Q1219.7109 318.2465 1213.5781 316.5668 Q1207.4453 314.8871 1201.1953 314.8871 Q1187.2109 314.8871 1179.4766 323.7543 Q1171.7422 332.6215 1171.7422 348.6371 Q1171.7422 364.6527 1179.4766 373.5199 Q1187.2109 382.3871 1201.1953 382.3871 Q1207.4453 382.3871 1213.5781 380.7074 Q1219.7109 379.0277 1225.8047 375.6683 L1225.8047 388.9496 Q1219.7891 391.7621 1213.3438 393.1683 Q1206.8984 394.5746 1199.6328 394.5746 Q1179.8672 394.5746 1168.2266 382.1527 Q1156.5859 369.7308 1156.5859 348.6371 Q1156.5859 327.2308 1168.3438 314.9652 Q1180.1016 302.6996 1200.5703 302.6996 Q1207.2109 302.6996 1213.5391 304.0668 Q1219.8672 305.434 1225.8047 308.1683 ZM1265.0234 279.9652 L1265.0234 304.809 L1294.6328 304.809 L1294.6328 315.9808 L1265.0234 315.9808 L1265.0234 363.4808 Q1265.0234 374.184 1267.9531 377.2308 Q1270.8828 380.2777 1279.8672 380.2777 L1294.6328 380.2777 L1294.6328 392.309 L1279.8672 392.309 Q1263.2266 392.309 1256.8984 386.098 Q1250.5703 379.8871 1250.5703 363.4808 L1250.5703 315.9808 L1240.0234 315.9808 L1240.0234 304.809 L1250.5703 304.809 L1250.5703 279.9652 L1265.0234 279.9652 ZM1313.5391 304.809 L1327.9141 304.809 L1327.9141 392.309 L1313.5391 392.309 L1313.5391 304.809 ZM1313.5391 270.7465 L1327.9141 270.7465 L1327.9141 288.9496 L1313.5391 288.9496 L1313.5391 270.7465 ZM1391.8984 314.8871 Q1380.3359 314.8871 1373.6172 323.9105 Q1366.8984 332.934 1366.8984 348.6371 Q1366.8984 364.3402 1373.5781 373.3636 Q1380.2578 382.3871 1391.8984 382.3871 Q1403.3828 382.3871 1410.1016 373.3246 Q1416.8203 364.2621 1416.8203 348.6371 Q1416.8203 333.0902 1410.1016 323.9886 Q1403.3828 314.8871 1391.8984 314.8871 ZM1391.8984 302.6996 Q1410.6484 302.6996 1421.3516 314.8871 Q1432.0547 327.0746 1432.0547 348.6371 Q1432.0547 370.1215 1421.3516 382.348 Q1410.6484 394.5746 1391.8984 394.5746 Q1373.0703 394.5746 1362.4062 382.348 Q1351.7422 370.1215 1351.7422 348.6371 Q1351.7422 327.0746 1362.4062 314.8871 Q1373.0703 302.6996 1391.8984 302.6996 ZM1528.6172 339.4965 L1528.6172 392.309 L1514.2422 392.309 L1514.2422 339.9652 Q1514.2422 327.5433 1509.3984 321.3715 Q1504.5547 315.1996 1494.8672 315.1996 Q1483.2266 315.1996 1476.5078 322.6215 Q1469.7891 330.0433 1469.7891 342.8558 L1469.7891 392.309 L1455.3359 392.309 L1455.3359 304.809 L1469.7891 304.809 L1469.7891 318.4027 Q1474.9453 310.5121 1481.9375 306.6058 Q1488.9297 302.6996 1498.0703 302.6996 Q1513.1484 302.6996 1520.8828 312.0355 Q1528.6172 321.3715 1528.6172 339.4965 Z" stroke="none" clip-path="url(#clipPath3)"/>
      <rect stroke-linecap="butt" x="556" y="37.9183" clip-path="url(#clipPath2)" fill="none" width="1000" height="600" stroke-miterlimit="1.45"/>
      <circle fill="rgb(83,123,240)" r="76.5" clip-path="url(#clipPath2)" cx="1473" cy="551.4183" stroke="none"/>
    </g>
    <g stroke-linecap="butt" font-size="130px" transform="matrix(1,0,0,1,-541,-22)" fill="white" text-rendering="geometricPrecision" font-family="sans-serif" shape-rendering="geometricPrecision" stroke="white" stroke-miterlimit="1.45">
      <text x="1431.645" xml:space="preserve" y="596.4232" clip-path="url(#clipPath2)" stroke="none">1</text>
    </g>
  </g>
</svg>
