<?xml version="1.0" encoding="UTF-8"?><svg xmlns="http://www.w3.org/2000/svg" xmlns:xlink="http://www.w3.org/1999/xlink" fill-opacity="1" color-rendering="auto" color-interpolation="auto" text-rendering="auto" stroke="black" stroke-linecap="square" width="1030" stroke-miterlimit="10" shape-rendering="auto" stroke-opacity="1" fill="black" stroke-dasharray="none" font-weight="normal" stroke-width="1" height="631" font-family="'Dialog'" font-style="normal" stroke-linejoin="miter" font-size="12px" stroke-dashoffset="0" image-rendering="auto">
  <!--Generated by ySVG 2.5-->
  <defs id="genericDefs"/>
  <g>
    <defs id="defs1">
      <clipPath clipPathUnits="userSpaceOnUse" id="clipPath1">
        <path d="M0 0 L1030 0 L1030 631 L0 631 L0 0 Z"/>
      </clipPath>
      <clipPath clipPathUnits="userSpaceOnUse" id="clipPath2">
        <path d="M541 22 L1571 22 L1571 653 L541 653 L541 22 Z"/>
      </clipPath>
      <clipPath clipPathUnits="userSpaceOnUse" id="clipPath3">
        <path d="M558 127.3871 L558 548.4496 L1554 548.4496 L1554 127.3871 Z"/>
      </clipPath>
    </defs>
    <g fill="white" text-rendering="geometricPrecision" shape-rendering="geometricPrecision" transform="translate(-541,-22)" stroke="white">
      <rect x="541" width="1030" height="631" y="22" clip-path="url(#clipPath2)" stroke="none"/>
    </g>
    <g text-rendering="geometricPrecision" shape-rendering="geometricPrecision" transform="matrix(1,0,0,1,-541,-22)">
      <path d="M637.1602 162.9456 L621.1133 206.4925 L653.2695 206.4925 L637.1602 162.9456 ZM630.4883 151.2894 L643.8945 151.2894 L677.2383 238.7738 L664.9414 238.7738 L656.9727 216.3363 L617.5352 216.3363 L609.5664 238.7738 L597.082 238.7738 L630.4883 151.2894 ZM736.6562 206.0238 Q736.6562 194.1175 731.7656 187.3519 Q726.875 180.5863 718.3125 180.5863 Q709.7656 180.5863 704.8672 187.3519 Q699.9688 194.1175 699.9688 206.0238 Q699.9688 217.9144 704.8672 224.68 Q709.7656 231.4456 718.3125 231.4456 Q726.875 231.4456 731.7656 224.68 Q736.6562 217.9144 736.6562 206.0238 ZM699.9688 183.1019 Q703.375 177.2425 708.5625 174.4066 Q713.75 171.5706 720.9531 171.5706 Q732.9062 171.5706 740.375 181.0628 Q747.8438 190.555 747.8438 206.0238 Q747.8438 221.4925 740.375 230.9847 Q732.9062 240.4769 720.9531 240.4769 Q713.75 240.4769 708.5625 237.6331 Q703.375 234.7894 699.9688 228.93 L699.9688 238.7738 L689.1406 238.7738 L689.1406 147.6019 L699.9688 147.6019 L699.9688 183.1019 ZM807.5469 175.0863 L807.5469 185.2738 Q802.9844 182.93 798.0625 181.7581 Q793.1406 180.5863 787.8594 180.5863 Q779.8438 180.5863 775.8281 183.0472 Q771.8125 185.5081 771.8125 190.43 Q771.8125 194.18 774.6797 196.3206 Q777.5469 198.4613 786.2188 200.3988 L789.9219 201.2113 Q801.4062 203.68 806.2344 208.1566 Q811.0625 212.6331 811.0625 220.6644 Q811.0625 229.805 803.8281 235.141 Q796.5938 240.4769 783.9375 240.4769 Q778.6719 240.4769 772.9531 239.4456 Q767.2344 238.4144 760.9062 236.3675 L760.9062 225.2425 Q766.8906 228.3363 772.6875 229.891 Q778.4844 231.4456 784.1719 231.4456 Q791.7969 231.4456 795.8984 228.8363 Q800 226.2269 800 221.4925 Q800 217.0863 797.0391 214.7425 Q794.0781 212.3988 784.0625 210.2425 L780.3125 209.3519 Q770.2812 207.2425 765.8281 202.8831 Q761.375 198.5238 761.375 190.8988 Q761.375 181.6488 767.9375 176.6097 Q774.5 171.5706 786.5781 171.5706 Q792.5469 171.5706 797.8203 172.4456 Q803.0938 173.3206 807.5469 175.0863 ZM838.8945 154.5081 L838.8945 173.1488 L861.1133 173.1488 L861.1133 181.5238 L838.8945 181.5238 L838.8945 217.1488 Q838.8945 225.18 841.0977 227.4613 Q843.3008 229.7425 850.0352 229.7425 L861.1133 229.7425 L861.1133 238.7738 L850.0352 238.7738 Q837.5508 238.7738 832.8086 234.1175 Q828.0664 229.4613 828.0664 217.1488 L828.0664 181.5238 L820.1445 181.5238 L820.1445 173.1488 L828.0664 173.1488 L828.0664 154.5081 L838.8945 154.5081 ZM913.3203 183.2269 Q911.4922 182.1644 909.3594 181.6722 Q907.2266 181.18 904.6484 181.18 Q895.5078 181.18 890.6094 187.1253 Q885.7109 193.0706 885.7109 204.1956 L885.7109 238.7738 L874.8828 238.7738 L874.8828 173.1488 L885.7109 173.1488 L885.7109 183.3363 Q889.1172 177.3675 894.5625 174.4691 Q900.0078 171.5706 907.8047 171.5706 Q908.9141 171.5706 910.2656 171.7113 Q911.6172 171.8519 913.2578 172.1488 L913.3203 183.2269 ZM954.4531 205.7894 Q941.375 205.7894 936.3359 208.7738 Q931.2969 211.7581 931.2969 218.9613 Q931.2969 224.7113 935.0781 228.0785 Q938.8594 231.4456 945.3594 231.4456 Q954.3281 231.4456 959.75 225.0863 Q965.1719 218.7269 965.1719 208.18 L965.1719 205.7894 L954.4531 205.7894 ZM975.9531 201.3363 L975.9531 238.7738 L965.1719 238.7738 L965.1719 228.805 Q961.4844 234.7894 955.9766 237.6331 Q950.4688 240.4769 942.5 240.4769 Q932.4219 240.4769 926.4688 234.8206 Q920.5156 229.1644 920.5156 219.6644 Q920.5156 208.6019 927.9297 202.9769 Q935.3438 197.3519 950.0469 197.3519 L965.1719 197.3519 L965.1719 196.2894 Q965.1719 188.8519 960.2812 184.7816 Q955.3906 180.7113 946.5312 180.7113 Q940.9062 180.7113 935.5781 182.055 Q930.25 183.3988 925.3281 186.1019 L925.3281 176.1331 Q931.25 173.8519 936.8125 172.7113 Q942.375 171.5706 947.6562 171.5706 Q961.8906 171.5706 968.9219 178.9535 Q975.9531 186.3363 975.9531 201.3363 ZM1045.3789 175.6644 L1045.3789 185.7425 Q1040.8164 183.2269 1036.2148 181.9691 Q1031.6133 180.7113 1026.9258 180.7113 Q1016.4414 180.7113 1010.6367 187.3597 Q1004.832 194.0081 1004.832 206.0238 Q1004.832 218.0238 1010.6367 224.68 Q1016.4414 231.3363 1026.9258 231.3363 Q1031.6133 231.3363 1036.2148 230.0706 Q1040.8164 228.805 1045.3789 226.2894 L1045.3789 236.2581 Q1040.8789 238.3675 1036.043 239.4222 Q1031.207 240.4769 1025.7539 240.4769 Q1010.9258 240.4769 1002.1992 231.1566 Q993.4727 221.8363 993.4727 206.0238 Q993.4727 189.9613 1002.293 180.766 Q1011.1133 171.5706 1026.457 171.5706 Q1031.4414 171.5706 1036.1836 172.5941 Q1040.9258 173.6175 1045.3789 175.6644 ZM1074.793 154.5081 L1074.793 173.1488 L1097.0117 173.1488 L1097.0117 181.5238 L1074.793 181.5238 L1074.793 217.1488 Q1074.793 225.18 1076.9961 227.4613 Q1079.1992 229.7425 1085.9336 229.7425 L1097.0117 229.7425 L1097.0117 238.7738 L1085.9336 238.7738 Q1073.4492 238.7738 1068.707 234.1175 Q1063.9648 229.4613 1063.9648 217.1488 L1063.9648 181.5238 L1056.043 181.5238 L1056.043 173.1488 L1063.9648 173.1488 L1063.9648 154.5081 L1074.793 154.5081 Z" stroke="none" clip-path="url(#clipPath3)"/>
      <path d="M637.1602 302.6331 L621.1133 346.18 L653.2695 346.18 L637.1602 302.6331 ZM630.4883 290.9769 L643.8945 290.9769 L677.2383 378.4613 L664.9414 378.4613 L656.9727 356.0238 L617.5352 356.0238 L609.5664 378.4613 L597.082 378.4613 L630.4883 290.9769 ZM736.7656 315.3519 L736.7656 325.43 Q732.2031 322.9144 727.6016 321.6566 Q723 320.3988 718.3125 320.3988 Q707.8281 320.3988 702.0234 327.0472 Q696.2188 333.6956 696.2188 345.7113 Q696.2188 357.7113 702.0234 364.3675 Q707.8281 371.0238 718.3125 371.0238 Q723 371.0238 727.6016 369.7581 Q732.2031 368.4925 736.7656 365.9769 L736.7656 375.9456 Q732.2656 378.055 727.4297 379.1097 Q722.5938 380.1644 717.1406 380.1644 Q702.3125 380.1644 693.5859 370.8441 Q684.8594 361.5238 684.8594 345.7113 Q684.8594 329.6488 693.6797 320.4535 Q702.5 311.2581 717.8438 311.2581 Q722.8281 311.2581 727.5703 312.2816 Q732.3125 313.305 736.7656 315.3519 ZM802.7422 315.3519 L802.7422 325.43 Q798.1797 322.9144 793.5781 321.6566 Q788.9766 320.3988 784.2891 320.3988 Q773.8047 320.3988 768 327.0472 Q762.1953 333.6956 762.1953 345.7113 Q762.1953 357.7113 768 364.3675 Q773.8047 371.0238 784.2891 371.0238 Q788.9766 371.0238 793.5781 369.7581 Q798.1797 368.4925 802.7422 365.9769 L802.7422 375.9456 Q798.2422 378.055 793.4062 379.1097 Q788.5703 380.1644 783.1172 380.1644 Q768.2891 380.1644 759.5625 370.8441 Q750.8359 361.5238 750.8359 345.7113 Q750.8359 329.6488 759.6562 320.4535 Q768.4766 311.2581 783.8203 311.2581 Q788.8047 311.2581 793.5469 312.2816 Q798.2891 313.305 802.7422 315.3519 ZM846.9219 320.3988 Q838.25 320.3988 833.2109 327.1644 Q828.1719 333.93 828.1719 345.7113 Q828.1719 357.4769 833.1875 364.2503 Q838.2031 371.0238 846.9219 371.0238 Q855.5469 371.0238 860.5859 364.2269 Q865.625 357.43 865.625 345.7113 Q865.625 334.0394 860.5859 327.2191 Q855.5469 320.3988 846.9219 320.3988 ZM846.9219 311.2581 Q860.9844 311.2581 869.0156 320.3988 Q877.0469 329.5394 877.0469 345.7113 Q877.0469 361.8206 869.0156 370.9925 Q860.9844 380.1644 846.9219 380.1644 Q832.8125 380.1644 824.8125 370.9925 Q816.8125 361.8206 816.8125 345.7113 Q816.8125 329.5394 824.8125 320.3988 Q832.8125 311.2581 846.9219 311.2581 ZM893.8086 352.555 L893.8086 312.8363 L904.5898 312.8363 L904.5898 352.1488 Q904.5898 361.4613 908.2227 366.1253 Q911.8555 370.7894 919.1211 370.7894 Q927.8398 370.7894 932.9102 365.2191 Q937.9805 359.6488 937.9805 350.0394 L937.9805 312.8363 L948.7617 312.8363 L948.7617 378.4613 L937.9805 378.4613 L937.9805 368.3831 Q934.0586 374.3519 928.8711 377.2581 Q923.6836 380.1644 916.8242 380.1644 Q905.5273 380.1644 899.668 373.1331 Q893.8086 366.1019 893.8086 352.555 ZM1025.5195 338.8519 L1025.5195 378.4613 L1014.7383 378.4613 L1014.7383 339.1956 Q1014.7383 329.8831 1011.1055 325.2581 Q1007.4727 320.6331 1000.207 320.6331 Q991.4727 320.6331 986.4336 326.1956 Q981.3945 331.7581 981.3945 341.3675 L981.3945 378.4613 L970.5664 378.4613 L970.5664 312.8363 L981.3945 312.8363 L981.3945 323.0238 Q985.2695 317.1175 990.5117 314.1878 Q995.7539 311.2581 1002.6133 311.2581 Q1013.9258 311.2581 1019.7227 318.2581 Q1025.5195 325.2581 1025.5195 338.8519 ZM1057.6836 294.1956 L1057.6836 312.8363 L1079.9023 312.8363 L1079.9023 321.2113 L1057.6836 321.2113 L1057.6836 356.8363 Q1057.6836 364.8675 1059.8867 367.1488 Q1062.0898 369.43 1068.8242 369.43 L1079.9023 369.43 L1079.9023 378.4613 L1068.8242 378.4613 Q1056.3398 378.4613 1051.5977 373.805 Q1046.8555 369.1488 1046.8555 356.8363 L1046.8555 321.2113 L1038.9336 321.2113 L1038.9336 312.8363 L1046.8555 312.8363 L1046.8555 294.1956 L1057.6836 294.1956 ZM1123.9062 345.4769 Q1110.8281 345.4769 1105.7891 348.4613 Q1100.75 351.4456 1100.75 358.6488 Q1100.75 364.3988 1104.5312 367.766 Q1108.3125 371.1331 1114.8125 371.1331 Q1123.7812 371.1331 1129.2031 364.7738 Q1134.625 358.4144 1134.625 347.8675 L1134.625 345.4769 L1123.9062 345.4769 ZM1145.4062 341.0238 L1145.4062 378.4613 L1134.625 378.4613 L1134.625 368.4925 Q1130.9375 374.4769 1125.4297 377.3206 Q1119.9219 380.1644 1111.9531 380.1644 Q1101.875 380.1644 1095.9219 374.5081 Q1089.9688 368.8519 1089.9688 359.3519 Q1089.9688 348.2894 1097.3828 342.6644 Q1104.7969 337.0394 1119.5 337.0394 L1134.625 337.0394 L1134.625 335.9769 Q1134.625 328.5394 1129.7344 324.4691 Q1124.8438 320.3988 1115.9844 320.3988 Q1110.3594 320.3988 1105.0312 321.7425 Q1099.7031 323.0863 1094.7812 325.7894 L1094.7812 315.8206 Q1100.7031 313.5394 1106.2656 312.3988 Q1111.8281 311.2581 1117.1094 311.2581 Q1131.3438 311.2581 1138.375 318.641 Q1145.4062 326.0238 1145.4062 341.0238 ZM1214.7227 345.7113 Q1214.7227 333.805 1209.832 327.0394 Q1204.9414 320.2738 1196.3789 320.2738 Q1187.832 320.2738 1182.9336 327.0394 Q1178.0352 333.805 1178.0352 345.7113 Q1178.0352 357.6019 1182.9336 364.3675 Q1187.832 371.1331 1196.3789 371.1331 Q1204.9414 371.1331 1209.832 364.3675 Q1214.7227 357.6019 1214.7227 345.7113 ZM1178.0352 322.7894 Q1181.4414 316.93 1186.6289 314.0941 Q1191.8164 311.2581 1199.0195 311.2581 Q1210.9727 311.2581 1218.4414 320.7503 Q1225.9102 330.2425 1225.9102 345.7113 Q1225.9102 361.18 1218.4414 370.6722 Q1210.9727 380.1644 1199.0195 380.1644 Q1191.8164 380.1644 1186.6289 377.3206 Q1181.4414 374.4769 1178.0352 368.6175 L1178.0352 378.4613 L1167.207 378.4613 L1167.207 287.2894 L1178.0352 287.2894 L1178.0352 322.7894 ZM1243.7852 312.8363 L1254.5664 312.8363 L1254.5664 378.4613 L1243.7852 378.4613 L1243.7852 312.8363 ZM1243.7852 287.2894 L1254.5664 287.2894 L1254.5664 300.9456 L1243.7852 300.9456 L1243.7852 287.2894 ZM1277.125 287.2894 L1287.9062 287.2894 L1287.9062 378.4613 L1277.125 378.4613 L1277.125 287.2894 ZM1310.4648 312.8363 L1321.2461 312.8363 L1321.2461 378.4613 L1310.4648 378.4613 L1310.4648 312.8363 ZM1310.4648 287.2894 L1321.2461 287.2894 L1321.2461 300.9456 L1310.4648 300.9456 L1310.4648 287.2894 ZM1354.4609 294.1956 L1354.4609 312.8363 L1376.6797 312.8363 L1376.6797 321.2113 L1354.4609 321.2113 L1354.4609 356.8363 Q1354.4609 364.8675 1356.6641 367.1488 Q1358.8672 369.43 1365.6016 369.43 L1376.6797 369.43 L1376.6797 378.4613 L1365.6016 378.4613 Q1353.1172 378.4613 1348.375 373.805 Q1343.6328 369.1488 1343.6328 356.8363 L1343.6328 321.2113 L1335.7109 321.2113 L1335.7109 312.8363 L1343.6328 312.8363 L1343.6328 294.1956 L1354.4609 294.1956 ZM1418.1523 384.555 Q1413.5898 396.2738 1409.2539 399.8519 Q1404.918 403.43 1397.6523 403.43 L1389.043 403.43 L1389.043 394.3988 L1395.3711 394.3988 Q1399.8242 394.3988 1402.2852 392.2894 Q1404.7461 390.18 1407.7305 382.3363 L1409.668 377.3988 L1383.1211 312.8363 L1394.543 312.8363 L1415.0586 364.1644 L1435.5586 312.8363 L1446.9805 312.8363 L1418.1523 384.555 Z" clip-path="url(#clipPath3)" stroke="none"/>
      <path d="M607.9258 430.6644 L619.7539 430.6644 L619.7539 508.1801 L662.3633 508.1801 L662.3633 518.1488 L607.9258 518.1488 L607.9258 430.6644 ZM704.1406 485.1644 Q691.0625 485.1644 686.0234 488.1488 Q680.9844 491.1332 680.9844 498.3363 Q680.9844 504.0863 684.7656 507.4535 Q688.5469 510.8207 695.0469 510.8207 Q704.0156 510.8207 709.4375 504.4613 Q714.8594 498.1019 714.8594 487.5551 L714.8594 485.1644 L704.1406 485.1644 ZM725.6406 480.7113 L725.6406 518.1488 L714.8594 518.1488 L714.8594 508.1801 Q711.1719 514.1644 705.6641 517.0082 Q700.1562 519.8519 692.1875 519.8519 Q682.1094 519.8519 676.1562 514.1957 Q670.2031 508.5394 670.2031 499.0394 Q670.2031 487.9769 677.6172 482.3519 Q685.0312 476.7269 699.7344 476.7269 L714.8594 476.7269 L714.8594 475.6644 Q714.8594 468.2269 709.9688 464.1566 Q705.0781 460.0863 696.2188 460.0863 Q690.5938 460.0863 685.2656 461.4301 Q679.9375 462.7738 675.0156 465.4769 L675.0156 455.5082 Q680.9375 453.2269 686.5 452.0863 Q692.0625 450.9457 697.3438 450.9457 Q711.5781 450.9457 718.6094 458.3285 Q725.6406 465.7113 725.6406 480.7113 ZM802.3945 478.5394 L802.3945 518.1488 L791.6133 518.1488 L791.6133 478.8832 Q791.6133 469.5707 787.9805 464.9457 Q784.3477 460.3207 777.082 460.3207 Q768.3477 460.3207 763.3086 465.8832 Q758.2695 471.4457 758.2695 481.0551 L758.2695 518.1488 L747.4414 518.1488 L747.4414 452.5238 L758.2695 452.5238 L758.2695 462.7113 Q762.1445 456.8051 767.3867 453.8754 Q772.6289 450.9457 779.4883 450.9457 Q790.8008 450.9457 796.5977 457.9457 Q802.3945 464.9457 802.3945 478.5394 ZM867.0898 484.5707 Q867.0898 472.8519 862.2539 466.4066 Q857.418 459.9613 848.6836 459.9613 Q840.0117 459.9613 835.1758 466.4066 Q830.3398 472.8519 830.3398 484.5707 Q830.3398 496.2269 835.1758 502.6722 Q840.0117 509.1176 848.6836 509.1176 Q857.418 509.1176 862.2539 502.6722 Q867.0898 496.2269 867.0898 484.5707 ZM877.8711 510.0082 Q877.8711 526.7582 870.4258 534.9379 Q862.9805 543.1176 847.6367 543.1176 Q841.9492 543.1176 836.9102 542.266 Q831.8711 541.4144 827.1211 539.6488 L827.1211 529.1644 Q831.8711 531.7426 836.4961 532.9769 Q841.1211 534.2113 845.9336 534.2113 Q856.543 534.2113 861.8164 528.6722 Q867.0898 523.1332 867.0898 511.9301 L867.0898 506.6019 Q863.7461 512.3988 858.5273 515.2738 Q853.3086 518.1488 846.043 518.1488 Q833.9805 518.1488 826.5977 508.9457 Q819.2148 499.7426 819.2148 484.5707 Q819.2148 469.3363 826.5977 460.141 Q833.9805 450.9457 846.043 450.9457 Q853.3086 450.9457 858.5273 453.8129 Q863.7461 456.6801 867.0898 462.4769 L867.0898 452.5238 L877.8711 452.5238 L877.8711 510.0082 ZM898.9648 492.2426 L898.9648 452.5238 L909.7461 452.5238 L909.7461 491.8363 Q909.7461 501.1488 913.3789 505.8129 Q917.0117 510.4769 924.2773 510.4769 Q932.9961 510.4769 938.0664 504.9066 Q943.1367 499.3363 943.1367 489.7269 L943.1367 452.5238 L953.918 452.5238 L953.918 518.1488 L943.1367 518.1488 L943.1367 508.0707 Q939.2148 514.0394 934.0273 516.9457 Q928.8398 519.8519 921.9805 519.8519 Q910.6836 519.8519 904.8242 512.8207 Q898.9648 505.7894 898.9648 492.2426 ZM1005.957 485.1644 Q992.8789 485.1644 987.8398 488.1488 Q982.8008 491.1332 982.8008 498.3363 Q982.8008 504.0863 986.582 507.4535 Q990.3633 510.8207 996.8633 510.8207 Q1005.832 510.8207 1011.2539 504.4613 Q1016.6758 498.1019 1016.6758 487.5551 L1016.6758 485.1644 L1005.957 485.1644 ZM1027.457 480.7113 L1027.457 518.1488 L1016.6758 518.1488 L1016.6758 508.1801 Q1012.9883 514.1644 1007.4805 517.0082 Q1001.9727 519.8519 994.0039 519.8519 Q983.9258 519.8519 977.9727 514.1957 Q972.0195 508.5394 972.0195 499.0394 Q972.0195 487.9769 979.4336 482.3519 Q986.8477 476.7269 1001.5508 476.7269 L1016.6758 476.7269 L1016.6758 475.6644 Q1016.6758 468.2269 1011.7852 464.1566 Q1006.8945 460.0863 998.0352 460.0863 Q992.4102 460.0863 987.082 461.4301 Q981.7539 462.7738 976.832 465.4769 L976.832 455.5082 Q982.7539 453.2269 988.3164 452.0863 Q993.8789 450.9457 999.1602 450.9457 Q1013.3945 450.9457 1020.4258 458.3285 Q1027.457 465.7113 1027.457 480.7113 ZM1092.8516 484.5707 Q1092.8516 472.8519 1088.0156 466.4066 Q1083.1797 459.9613 1074.4453 459.9613 Q1065.7734 459.9613 1060.9375 466.4066 Q1056.1016 472.8519 1056.1016 484.5707 Q1056.1016 496.2269 1060.9375 502.6722 Q1065.7734 509.1176 1074.4453 509.1176 Q1083.1797 509.1176 1088.0156 502.6722 Q1092.8516 496.2269 1092.8516 484.5707 ZM1103.6328 510.0082 Q1103.6328 526.7582 1096.1875 534.9379 Q1088.7422 543.1176 1073.3984 543.1176 Q1067.7109 543.1176 1062.6719 542.266 Q1057.6328 541.4144 1052.8828 539.6488 L1052.8828 529.1644 Q1057.6328 531.7426 1062.2578 532.9769 Q1066.8828 534.2113 1071.6953 534.2113 Q1082.3047 534.2113 1087.5781 528.6722 Q1092.8516 523.1332 1092.8516 511.9301 L1092.8516 506.6019 Q1089.5078 512.3988 1084.2891 515.2738 Q1079.0703 518.1488 1071.8047 518.1488 Q1059.7422 518.1488 1052.3594 508.9457 Q1044.9766 499.7426 1044.9766 484.5707 Q1044.9766 469.3363 1052.3594 460.141 Q1059.7422 450.9457 1071.8047 450.9457 Q1079.0703 450.9457 1084.2891 453.8129 Q1089.5078 456.6801 1092.8516 462.4769 L1092.8516 452.5238 L1103.6328 452.5238 L1103.6328 510.0082 ZM1181.9609 482.6332 L1181.9609 487.9144 L1132.3984 487.9144 Q1133.1016 499.0394 1139.1094 504.8754 Q1145.1172 510.7113 1155.8359 510.7113 Q1162.0391 510.7113 1167.875 509.1879 Q1173.7109 507.6644 1179.4453 504.6176 L1179.4453 514.8051 Q1173.6484 517.2738 1167.5547 518.5629 Q1161.4609 519.8519 1155.1953 519.8519 Q1139.4922 519.8519 1130.3203 510.7113 Q1121.1484 501.5707 1121.1484 485.9769 Q1121.1484 469.8676 1129.8516 460.4066 Q1138.5547 450.9457 1153.3203 450.9457 Q1166.5547 450.9457 1174.2578 459.4691 Q1181.9609 467.9926 1181.9609 482.6332 ZM1171.1797 479.4769 Q1171.0703 470.6332 1166.2344 465.3597 Q1161.3984 460.0863 1153.4297 460.0863 Q1144.4141 460.0863 1138.9922 465.1801 Q1133.5703 470.2738 1132.7422 479.5394 L1171.1797 479.4769 Z" clip-path="url(#clipPath3)" stroke="none"/>
      <rect stroke-linecap="butt" x="556" y="37.9183" clip-path="url(#clipPath2)" fill="none" width="1000" height="600" stroke-miterlimit="1.45"/>
      <circle fill="rgb(83,123,240)" r="76.5" clip-path="url(#clipPath2)" cx="1473" cy="551.4183" stroke="none"/>
    </g>
    <g stroke-linecap="butt" font-size="130px" transform="matrix(1,0,0,1,-541,-22)" fill="white" text-rendering="geometricPrecision" font-family="sans-serif" shape-rendering="geometricPrecision" stroke="white" stroke-miterlimit="1.45">
      <text x="1431.645" xml:space="preserve" y="596.4232" clip-path="url(#clipPath2)" stroke="none">3</text>
    </g>
  </g>
</svg>
