<?xml version="1.0" encoding="UTF-8"?><svg xmlns="http://www.w3.org/2000/svg" xmlns:xlink="http://www.w3.org/1999/xlink" fill-opacity="1" color-rendering="auto" color-interpolation="auto" text-rendering="auto" stroke="black" stroke-linecap="square" width="1030" stroke-miterlimit="10" shape-rendering="auto" stroke-opacity="1" fill="black" stroke-dasharray="none" font-weight="normal" stroke-width="1" height="631" font-family="'Dialog'" font-style="normal" stroke-linejoin="miter" font-size="12px" stroke-dashoffset="0" image-rendering="auto">
  <!--Generated by ySVG 2.5-->
  <defs id="genericDefs"/>
  <g>
    <defs id="defs1">
      <clipPath clipPathUnits="userSpaceOnUse" id="clipPath1">
        <path d="M0 0 L1030 0 L1030 631 L0 631 L0 0 Z"/>
      </clipPath>
      <clipPath clipPathUnits="userSpaceOnUse" id="clipPath2">
        <path d="M541 22 L1571 22 L1571 653 L541 653 L541 22 Z"/>
      </clipPath>
      <clipPath clipPathUnits="userSpaceOnUse" id="clipPath3">
        <path d="M558 243.7933 L558 432.0433 L1554 432.0433 L1554 243.7933 Z"/>
      </clipPath>
    </defs>
    <g fill="white" text-rendering="geometricPrecision" shape-rendering="geometricPrecision" transform="translate(-541,-22)" stroke="white">
      <rect x="541" width="1030" height="631" y="22" clip-path="url(#clipPath2)" stroke="none"/>
    </g>
    <g text-rendering="geometricPrecision" shape-rendering="geometricPrecision" transform="matrix(1,0,0,1,-541,-22)">
      <path d="M844.2422 284.6527 L844.2422 301.2933 Q836.2734 293.8715 827.25 290.1996 Q818.2266 286.5277 808.0703 286.5277 Q788.0703 286.5277 777.4453 298.7543 Q766.8203 310.9808 766.8203 334.1058 Q766.8203 357.1527 777.4453 369.3793 Q788.0703 381.6058 808.0703 381.6058 Q818.2266 381.6058 827.25 377.934 Q836.2734 374.2621 844.2422 366.8402 L844.2422 383.3246 Q835.9609 388.9496 826.7031 391.7621 Q817.4453 394.5746 807.1328 394.5746 Q780.6484 394.5746 765.4141 378.3636 Q750.1797 362.1527 750.1797 334.1058 Q750.1797 305.9808 765.4141 289.7699 Q780.6484 273.559 807.1328 273.559 Q817.6016 273.559 826.8594 276.3324 Q836.1172 279.1058 844.2422 284.6527 ZM901.8984 314.8871 Q890.3359 314.8871 883.6172 323.9105 Q876.8984 332.934 876.8984 348.6371 Q876.8984 364.3402 883.5781 373.3636 Q890.2578 382.3871 901.8984 382.3871 Q913.3828 382.3871 920.1016 373.3246 Q926.8203 364.2621 926.8203 348.6371 Q926.8203 333.0902 920.1016 323.9886 Q913.3828 314.8871 901.8984 314.8871 ZM901.8984 302.6996 Q920.6484 302.6996 931.3516 314.8871 Q942.0547 327.0746 942.0547 348.6371 Q942.0547 370.1215 931.3516 382.348 Q920.6484 394.5746 901.8984 394.5746 Q883.0703 394.5746 872.4062 382.348 Q861.7422 370.1215 861.7422 348.6371 Q861.7422 327.0746 872.4062 314.8871 Q883.0703 302.6996 901.8984 302.6996 ZM1038.6172 339.4965 L1038.6172 392.309 L1024.2422 392.309 L1024.2422 339.9652 Q1024.2422 327.5433 1019.3984 321.3715 Q1014.5547 315.1996 1004.8672 315.1996 Q993.2266 315.1996 986.5078 322.6215 Q979.7891 330.0433 979.7891 342.8558 L979.7891 392.309 L965.3359 392.309 L965.3359 304.809 L979.7891 304.809 L979.7891 318.4027 Q984.9453 310.5121 991.9375 306.6058 Q998.9297 302.6996 1008.0703 302.6996 Q1023.1484 302.6996 1030.8828 312.0355 Q1038.6172 321.3715 1038.6172 339.4965 ZM1081.5078 279.9652 L1081.5078 304.809 L1111.1172 304.809 L1111.1172 315.9808 L1081.5078 315.9808 L1081.5078 363.4808 Q1081.5078 374.184 1084.4375 377.2308 Q1087.3672 380.2777 1096.3516 380.2777 L1111.1172 380.2777 L1111.1172 392.309 L1096.3516 392.309 Q1079.7109 392.309 1073.3828 386.098 Q1067.0547 379.8871 1067.0547 363.4808 L1067.0547 315.9808 L1056.5078 315.9808 L1056.5078 304.809 L1067.0547 304.809 L1067.0547 279.9652 L1081.5078 279.9652 ZM1204.8672 344.9652 L1204.8672 351.9965 L1138.7734 351.9965 Q1139.7109 366.8402 1147.7188 374.6136 Q1155.7266 382.3871 1170.0234 382.3871 Q1178.3047 382.3871 1186.0781 380.3558 Q1193.8516 378.3246 1201.5078 374.2621 L1201.5078 387.8558 Q1193.7734 391.1371 1185.6484 392.8558 Q1177.5234 394.5746 1169.1641 394.5746 Q1148.2266 394.5746 1136 382.3871 Q1123.7734 370.1996 1123.7734 349.4183 Q1123.7734 327.934 1135.375 315.3168 Q1146.9766 302.6996 1166.6641 302.6996 Q1184.3203 302.6996 1194.5938 314.0668 Q1204.8672 325.434 1204.8672 344.9652 ZM1190.4922 340.7465 Q1190.3359 328.9496 1183.8906 321.9183 Q1177.4453 314.8871 1166.8203 314.8871 Q1154.7891 314.8871 1147.5625 321.684 Q1140.3359 328.4808 1139.2422 340.8246 L1190.4922 340.7465 ZM1301.1953 304.809 L1269.5547 347.3871 L1302.8359 392.309 L1285.8828 392.309 L1260.4141 357.934 L1234.9453 392.309 L1217.9922 392.309 L1251.9766 346.5277 L1220.8828 304.809 L1237.8359 304.809 L1261.0391 335.9808 L1284.2422 304.809 L1301.1953 304.809 ZM1337.3672 279.9652 L1337.3672 304.809 L1366.9766 304.809 L1366.9766 315.9808 L1337.3672 315.9808 L1337.3672 363.4808 Q1337.3672 374.184 1340.2969 377.2308 Q1343.2266 380.2777 1352.2109 380.2777 L1366.9766 380.2777 L1366.9766 392.309 L1352.2109 392.309 Q1335.5703 392.309 1329.2422 386.098 Q1322.9141 379.8871 1322.9141 363.4808 L1322.9141 315.9808 L1312.3672 315.9808 L1312.3672 304.809 L1322.9141 304.809 L1322.9141 279.9652 L1337.3672 279.9652 Z" stroke="none" clip-path="url(#clipPath3)"/>
      <rect stroke-linecap="butt" x="556" y="37.9183" clip-path="url(#clipPath2)" fill="none" width="1000" height="600" stroke-miterlimit="1.45"/>
      <circle fill="rgb(83,123,240)" r="76.5" clip-path="url(#clipPath2)" cx="1473" cy="551.4183" stroke="none"/>
    </g>
    <g stroke-linecap="butt" font-size="130px" transform="matrix(1,0,0,1,-541,-22)" fill="white" text-rendering="geometricPrecision" font-family="sans-serif" shape-rendering="geometricPrecision" stroke="white" stroke-miterlimit="1.45">
      <text x="1431.645" xml:space="preserve" y="596.4232" clip-path="url(#clipPath2)" stroke="none">2</text>
    </g>
  </g>
</svg>
