<?xml version="1.0" encoding="UTF-8"?><svg xmlns="http://www.w3.org/2000/svg" xmlns:xlink="http://www.w3.org/1999/xlink" fill-opacity="1" color-rendering="auto" color-interpolation="auto" text-rendering="auto" stroke="black" stroke-linecap="square" width="2391" stroke-miterlimit="10" shape-rendering="auto" stroke-opacity="1" fill="black" stroke-dasharray="none" font-weight="normal" stroke-width="1" height="245" font-family="'Dialog'" font-style="normal" stroke-linejoin="miter" font-size="12px" stroke-dashoffset="0" image-rendering="auto">
  <!--Generated by ySVG 2.5-->
  <defs id="genericDefs"/>
  <g>
    <defs id="defs1">
      <clipPath clipPathUnits="userSpaceOnUse" id="clipPath1">
        <path d="M0 0 L2391 0 L2391 245 L0 245 L0 0 Z"/>
      </clipPath>
      <clipPath clipPathUnits="userSpaceOnUse" id="clipPath2">
        <path d="M281 47 L2672 47 L2672 292 L281 292 L281 47 Z"/>
      </clipPath>
      <clipPath clipPathUnits="userSpaceOnUse" id="clipPath3">
        <path d="M298.7227 121.8988 L298.7227 217.0238 L2654.0977 217.0238 L2654.0977 121.8988 Z"/>
      </clipPath>
    </defs>
    <g fill="white" text-rendering="geometricPrecision" shape-rendering="geometricPrecision" transform="translate(-281,-47)" stroke="white">
      <rect x="281" width="2391" height="245" y="47" clip-path="url(#clipPath2)" stroke="none"/>
    </g>
    <g text-rendering="geometricPrecision" shape-rendering="geometricPrecision" transform="matrix(1,0,0,1,-281,-47)">
      <path d="M464.7695 145.6097 L454.0664 174.6253 L475.5195 174.6253 L464.7695 145.6097 ZM460.3164 137.8285 L469.2695 137.8285 L491.4883 196.1566 L483.2852 196.1566 L477.9727 181.1878 L451.6914 181.1878 L446.3789 196.1566 L438.0508 196.1566 L460.3164 137.8285 ZM531.1836 154.0785 L531.1836 160.7972 Q528.1367 159.1253 525.0664 158.2816 Q521.9961 157.4378 518.8711 157.4378 Q511.8867 157.4378 508.0195 161.8753 Q504.1523 166.3128 504.1523 174.3128 Q504.1523 182.3285 508.0195 186.7581 Q511.8867 191.1878 518.8711 191.1878 Q521.9961 191.1878 525.0664 190.3519 Q528.1367 189.516 531.1836 187.8285 L531.1836 194.4691 Q528.168 195.8753 524.9492 196.5863 Q521.7305 197.2972 518.0898 197.2972 Q508.2148 197.2972 502.3945 191.0785 Q496.5742 184.8597 496.5742 174.3128 Q496.5742 163.6097 502.4492 157.4769 Q508.3242 151.3441 518.5586 151.3441 Q521.8867 151.3441 525.0508 152.0316 Q528.2148 152.7191 531.1836 154.0785 ZM575.168 154.0785 L575.168 160.7972 Q572.1211 159.1253 569.0508 158.2816 Q565.9805 157.4378 562.8555 157.4378 Q555.8711 157.4378 552.0039 161.8753 Q548.1367 166.3128 548.1367 174.3128 Q548.1367 182.3285 552.0039 186.7581 Q555.8711 191.1878 562.8555 191.1878 Q565.9805 191.1878 569.0508 190.3519 Q572.1211 189.516 575.168 187.8285 L575.168 194.4691 Q572.1523 195.8753 568.9336 196.5863 Q565.7148 197.2972 562.0742 197.2972 Q552.1992 197.2972 546.3789 191.0785 Q540.5586 184.8597 540.5586 174.3128 Q540.5586 163.6097 546.4336 157.4769 Q552.3086 151.3441 562.543 151.3441 Q565.8711 151.3441 569.0352 152.0316 Q572.1992 152.7191 575.168 154.0785 ZM604.6211 157.4378 Q598.8398 157.4378 595.4805 161.9535 Q592.1211 166.4691 592.1211 174.3128 Q592.1211 182.1722 595.457 186.68 Q598.793 191.1878 604.6211 191.1878 Q610.3555 191.1878 613.7148 186.6566 Q617.0742 182.1253 617.0742 174.3128 Q617.0742 166.5472 613.7148 161.9925 Q610.3555 157.4378 604.6211 157.4378 ZM604.6211 151.3441 Q613.9961 151.3441 619.3477 157.4378 Q624.6992 163.5316 624.6992 174.3128 Q624.6992 185.0628 619.3477 191.18 Q613.9961 197.2972 604.6211 197.2972 Q595.1992 197.2972 589.8711 191.18 Q584.543 185.0628 584.543 174.3128 Q584.543 163.5316 589.8711 157.4378 Q595.1992 151.3441 604.6211 151.3441 ZM635.8633 178.891 L635.8633 152.4066 L643.0508 152.4066 L643.0508 178.6097 Q643.0508 184.8285 645.4727 187.93 Q647.8945 191.0316 652.7383 191.0316 Q658.5664 191.0316 661.9414 187.3206 Q665.3164 183.6097 665.3164 177.2035 L665.3164 152.4066 L672.5039 152.4066 L672.5039 196.1566 L665.3164 196.1566 L665.3164 189.4378 Q662.707 193.4222 659.2461 195.3597 Q655.7852 197.2972 651.2227 197.2972 Q643.6758 197.2972 639.7695 192.6019 Q635.8633 187.9066 635.8633 178.891 ZM723.6758 169.7503 L723.6758 196.1566 L716.4883 196.1566 L716.4883 169.9847 Q716.4883 163.766 714.0664 160.68 Q711.6445 157.5941 706.8008 157.5941 Q700.9883 157.5941 697.6289 161.305 Q694.2695 165.016 694.2695 171.4222 L694.2695 196.1566 L687.0352 196.1566 L687.0352 152.4066 L694.2695 152.4066 L694.2695 159.2035 Q696.8477 155.2503 700.3398 153.2972 Q703.832 151.3441 708.4102 151.3441 Q715.9414 151.3441 719.8086 156.016 Q723.6758 160.6878 723.6758 169.7503 ZM745.1289 139.9847 L745.1289 152.4066 L759.9258 152.4066 L759.9258 157.9847 L745.1289 157.9847 L745.1289 181.7347 Q745.1289 187.0941 746.5898 188.6175 Q748.0508 190.141 752.5508 190.141 L759.9258 190.141 L759.9258 196.1566 L752.5508 196.1566 Q744.2227 196.1566 741.0586 193.0472 Q737.8945 189.9378 737.8945 181.7347 L737.8945 157.9847 L732.6289 157.9847 L732.6289 152.4066 L737.8945 152.4066 L737.8945 139.9847 L745.1289 139.9847 ZM789.2617 174.1566 Q780.5586 174.1566 777.1992 176.1488 Q773.8398 178.141 773.8398 182.9535 Q773.8398 186.7816 776.3555 189.0238 Q778.8711 191.266 783.2148 191.266 Q789.1836 191.266 792.8008 187.0316 Q796.418 182.7972 796.418 175.766 L796.418 174.1566 L789.2617 174.1566 ZM803.6055 171.1878 L803.6055 196.1566 L796.418 196.1566 L796.418 189.516 Q793.9492 193.5003 790.2773 195.3988 Q786.6055 197.2972 781.293 197.2972 Q774.5742 197.2972 770.6133 193.5238 Q766.6523 189.7503 766.6523 183.4222 Q766.6523 176.0316 771.5898 172.2816 Q776.5273 168.5316 786.3398 168.5316 L796.418 168.5316 L796.418 167.8285 Q796.418 162.8753 793.1523 160.1566 Q789.8867 157.4378 783.9961 157.4378 Q780.2461 157.4378 776.6914 158.3363 Q773.1367 159.2347 769.8555 161.0316 L769.8555 154.391 Q773.793 152.8753 777.5039 152.1097 Q781.2148 151.3441 784.7305 151.3441 Q794.2305 151.3441 798.918 156.266 Q803.6055 161.1878 803.6055 171.1878 ZM849.8164 174.3128 Q849.8164 166.391 846.5508 161.8753 Q843.2852 157.3597 837.582 157.3597 Q831.8789 157.3597 828.6211 161.8753 Q825.3633 166.391 825.3633 174.3128 Q825.3633 182.2503 828.6211 186.7581 Q831.8789 191.266 837.582 191.266 Q843.2852 191.266 846.5508 186.7581 Q849.8164 182.2503 849.8164 174.3128 ZM825.3633 159.0472 Q827.6289 155.141 831.082 153.2425 Q834.5352 151.3441 839.3477 151.3441 Q847.3164 151.3441 852.293 157.6722 Q857.2695 164.0003 857.2695 174.3128 Q857.2695 184.6253 852.293 190.9613 Q847.3164 197.2972 839.3477 197.2972 Q834.5352 197.2972 831.082 195.3988 Q827.6289 193.5003 825.3633 189.5941 L825.3633 196.1566 L818.1289 196.1566 L818.1289 135.3753 L825.3633 135.3753 L825.3633 159.0472 ZM869.1914 152.4066 L876.3789 152.4066 L876.3789 196.1566 L869.1914 196.1566 L869.1914 152.4066 ZM869.1914 135.3753 L876.3789 135.3753 L876.3789 144.4691 L869.1914 144.4691 L869.1914 135.3753 ZM891.418 135.3753 L898.6055 135.3753 L898.6055 196.1566 L891.418 196.1566 L891.418 135.3753 ZM913.6445 152.4066 L920.832 152.4066 L920.832 196.1566 L913.6445 196.1566 L913.6445 152.4066 ZM913.6445 135.3753 L920.832 135.3753 L920.832 144.4691 L913.6445 144.4691 L913.6445 135.3753 ZM942.9805 139.9847 L942.9805 152.4066 L957.7773 152.4066 L957.7773 157.9847 L942.9805 157.9847 L942.9805 181.7347 Q942.9805 187.0941 944.4414 188.6175 Q945.9023 190.141 950.4023 190.141 L957.7773 190.141 L957.7773 196.1566 L950.4023 196.1566 Q942.0742 196.1566 938.9102 193.0472 Q935.7461 189.9378 935.7461 181.7347 L935.7461 157.9847 L930.4805 157.9847 L930.4805 152.4066 L935.7461 152.4066 L935.7461 139.9847 L942.9805 139.9847 ZM985.4414 200.2191 Q982.3945 208.0316 979.5039 210.4144 Q976.6133 212.7972 971.7695 212.7972 L966.0195 212.7972 L966.0195 206.7816 L970.2383 206.7816 Q973.207 206.7816 974.8477 205.3753 Q976.4883 203.9691 978.4883 198.7347 L979.7695 195.4535 L962.082 152.4066 L969.6914 152.4066 L983.3633 186.6253 L997.0352 152.4066 L1004.6602 152.4066 L985.4414 200.2191 ZM1062.1523 135.3753 L1062.1523 141.3441 L1055.2773 141.3441 Q1051.418 141.3441 1049.9102 142.9066 Q1048.4023 144.4691 1048.4023 148.5316 L1048.4023 152.4066 L1060.2461 152.4066 L1060.2461 157.9847 L1048.4023 157.9847 L1048.4023 196.1566 L1041.1836 196.1566 L1041.1836 157.9847 L1034.3086 157.9847 L1034.3086 152.4066 L1041.1836 152.4066 L1041.1836 149.3597 Q1041.1836 142.0472 1044.582 138.7113 Q1047.9805 135.3753 1055.3555 135.3753 L1062.1523 135.3753 ZM1093.5195 159.1253 Q1092.3164 158.4222 1090.8867 158.0863 Q1089.457 157.7503 1087.7383 157.7503 Q1081.6445 157.7503 1078.3867 161.7191 Q1075.1289 165.6878 1075.1289 173.1097 L1075.1289 196.1566 L1067.8945 196.1566 L1067.8945 152.4066 L1075.1289 152.4066 L1075.1289 159.2035 Q1077.3945 155.2191 1081.0273 153.2816 Q1084.6602 151.3441 1089.8477 151.3441 Q1090.5977 151.3441 1091.4961 151.4456 Q1092.3945 151.5472 1093.4883 151.7347 L1093.5195 159.1253 ZM1118.0195 157.4378 Q1112.2383 157.4378 1108.8789 161.9535 Q1105.5195 166.4691 1105.5195 174.3128 Q1105.5195 182.1722 1108.8555 186.68 Q1112.1914 191.1878 1118.0195 191.1878 Q1123.7539 191.1878 1127.1133 186.6566 Q1130.4727 182.1253 1130.4727 174.3128 Q1130.4727 166.5472 1127.1133 161.9925 Q1123.7539 157.4378 1118.0195 157.4378 ZM1118.0195 151.3441 Q1127.3945 151.3441 1132.7461 157.4378 Q1138.0977 163.5316 1138.0977 174.3128 Q1138.0977 185.0628 1132.7461 191.18 Q1127.3945 197.2972 1118.0195 197.2972 Q1108.5977 197.2972 1103.2695 191.18 Q1097.9414 185.0628 1097.9414 174.3128 Q1097.9414 163.5316 1103.2695 157.4378 Q1108.5977 151.3441 1118.0195 151.3441 ZM1184.0742 160.7972 Q1186.7617 155.9535 1190.5117 153.6488 Q1194.2617 151.3441 1199.3398 151.3441 Q1206.1836 151.3441 1209.8945 156.1331 Q1213.6055 160.9222 1213.6055 169.7503 L1213.6055 196.1566 L1206.3711 196.1566 L1206.3711 169.9847 Q1206.3711 163.6878 1204.1445 160.641 Q1201.918 157.5941 1197.3555 157.5941 Q1191.7617 157.5941 1188.5195 161.305 Q1185.2773 165.016 1185.2773 171.4222 L1185.2773 196.1566 L1178.0586 196.1566 L1178.0586 169.9847 Q1178.0586 163.6566 1175.832 160.6253 Q1173.6055 157.5941 1168.9492 157.5941 Q1163.4492 157.5941 1160.207 161.3285 Q1156.9648 165.0628 1156.9648 171.4222 L1156.9648 196.1566 L1149.7305 196.1566 L1149.7305 152.4066 L1156.9648 152.4066 L1156.9648 159.2035 Q1159.418 155.1722 1162.8555 153.2581 Q1166.293 151.3441 1171.0273 151.3441 Q1175.793 151.3441 1179.1289 153.766 Q1182.4648 156.1878 1184.0742 160.7972 ZM1281.2617 153.6878 L1281.2617 160.4847 Q1278.2148 158.9222 1274.9336 158.141 Q1271.6523 157.3597 1268.1367 157.3597 Q1262.7773 157.3597 1260.1055 159.0003 Q1257.4336 160.641 1257.4336 163.9222 Q1257.4336 166.4222 1259.3477 167.8519 Q1261.2617 169.2816 1267.043 170.5628 L1269.4961 171.1097 Q1277.1523 172.7503 1280.3789 175.7425 Q1283.6055 178.7347 1283.6055 184.0785 Q1283.6055 190.1722 1278.7773 193.7347 Q1273.9492 197.2972 1265.5117 197.2972 Q1261.9961 197.2972 1258.1914 196.6097 Q1254.3867 195.9222 1250.168 194.5472 L1250.168 187.1253 Q1254.1523 189.2035 1258.0195 190.2347 Q1261.8867 191.266 1265.668 191.266 Q1270.7461 191.266 1273.4805 189.5316 Q1276.2148 187.7972 1276.2148 184.6253 Q1276.2148 181.7035 1274.2461 180.141 Q1272.2773 178.5785 1265.5898 177.1253 L1263.0898 176.5472 Q1256.418 175.141 1253.4492 172.2269 Q1250.4805 169.3128 1250.4805 164.2347 Q1250.4805 158.0628 1254.8555 154.7035 Q1259.2305 151.3441 1267.2773 151.3441 Q1271.2617 151.3441 1274.7773 151.93 Q1278.293 152.516 1281.2617 153.6878 ZM1302.0039 189.5941 L1302.0039 212.7972 L1294.7695 212.7972 L1294.7695 152.4066 L1302.0039 152.4066 L1302.0039 159.0472 Q1304.2695 155.141 1307.7227 153.2425 Q1311.1758 151.3441 1315.9883 151.3441 Q1323.957 151.3441 1328.9336 157.6722 Q1333.9102 164.0003 1333.9102 174.3128 Q1333.9102 184.6253 1328.9336 190.9613 Q1323.957 197.2972 1315.9883 197.2972 Q1311.1758 197.2972 1307.7227 195.3988 Q1304.2695 193.5003 1302.0039 189.5941 ZM1326.457 174.3128 Q1326.457 166.391 1323.1914 161.8753 Q1319.9258 157.3597 1314.2227 157.3597 Q1308.5195 157.3597 1305.2617 161.8753 Q1302.0039 166.391 1302.0039 174.3128 Q1302.0039 182.2503 1305.2617 186.7581 Q1308.5195 191.266 1314.2227 191.266 Q1319.9258 191.266 1323.1914 186.7581 Q1326.457 182.2503 1326.457 174.3128 ZM1383.2539 172.4847 L1383.2539 176.0003 L1350.207 176.0003 Q1350.6758 183.4222 1354.6758 187.305 Q1358.6758 191.1878 1365.832 191.1878 Q1369.9727 191.1878 1373.8555 190.1722 Q1377.7383 189.1566 1381.5664 187.1253 L1381.5664 193.9222 Q1377.707 195.5628 1373.6445 196.43 Q1369.582 197.2972 1365.3945 197.2972 Q1354.9258 197.2972 1348.8164 191.1956 Q1342.707 185.0941 1342.707 174.7035 Q1342.707 163.9691 1348.5039 157.6566 Q1354.3008 151.3441 1364.1445 151.3441 Q1372.9727 151.3441 1378.1133 157.0316 Q1383.2539 162.7191 1383.2539 172.4847 ZM1376.0664 170.3753 Q1375.9883 164.4691 1372.7617 160.9535 Q1369.5352 157.4378 1364.2227 157.4378 Q1358.207 157.4378 1354.5977 160.8363 Q1350.9883 164.2347 1350.4414 170.4066 L1376.0664 170.3753 ZM1426.5352 154.0785 L1426.5352 160.7972 Q1423.4883 159.1253 1420.418 158.2816 Q1417.3477 157.4378 1414.2227 157.4378 Q1407.2383 157.4378 1403.3711 161.8753 Q1399.5039 166.3128 1399.5039 174.3128 Q1399.5039 182.3285 1403.3711 186.7581 Q1407.2383 191.1878 1414.2227 191.1878 Q1417.3477 191.1878 1420.418 190.3519 Q1423.4883 189.516 1426.5352 187.8285 L1426.5352 194.4691 Q1423.5195 195.8753 1420.3008 196.5863 Q1417.082 197.2972 1413.4414 197.2972 Q1403.5664 197.2972 1397.7461 191.0785 Q1391.9258 184.8597 1391.9258 174.3128 Q1391.9258 163.6097 1397.8008 157.4769 Q1403.6758 151.3441 1413.9102 151.3441 Q1417.2383 151.3441 1420.4023 152.0316 Q1423.5664 152.7191 1426.5352 154.0785 ZM1439.0352 152.4066 L1446.2227 152.4066 L1446.2227 196.1566 L1439.0352 196.1566 L1439.0352 152.4066 ZM1439.0352 135.3753 L1446.2227 135.3753 L1446.2227 144.4691 L1439.0352 144.4691 L1439.0352 135.3753 ZM1483.4023 135.3753 L1483.4023 141.3441 L1476.5273 141.3441 Q1472.668 141.3441 1471.1602 142.9066 Q1469.6523 144.4691 1469.6523 148.5316 L1469.6523 152.4066 L1481.4961 152.4066 L1481.4961 157.9847 L1469.6523 157.9847 L1469.6523 196.1566 L1462.4336 196.1566 L1462.4336 157.9847 L1455.5586 157.9847 L1455.5586 152.4066 L1462.4336 152.4066 L1462.4336 149.3597 Q1462.4336 142.0472 1465.832 138.7113 Q1469.2305 135.3753 1476.6055 135.3753 L1483.4023 135.3753 ZM1489.4258 152.4066 L1496.6133 152.4066 L1496.6133 196.1566 L1489.4258 196.1566 L1489.4258 152.4066 ZM1489.4258 135.3753 L1496.6133 135.3753 L1496.6133 144.4691 L1489.4258 144.4691 L1489.4258 135.3753 ZM1543.1367 154.0785 L1543.1367 160.7972 Q1540.0898 159.1253 1537.0195 158.2816 Q1533.9492 157.4378 1530.8242 157.4378 Q1523.8398 157.4378 1519.9727 161.8753 Q1516.1055 166.3128 1516.1055 174.3128 Q1516.1055 182.3285 1519.9727 186.7581 Q1523.8398 191.1878 1530.8242 191.1878 Q1533.9492 191.1878 1537.0195 190.3519 Q1540.0898 189.516 1543.1367 187.8285 L1543.1367 194.4691 Q1540.1211 195.8753 1536.9023 196.5863 Q1533.6836 197.2972 1530.043 197.2972 Q1520.168 197.2972 1514.3477 191.0785 Q1508.5273 184.8597 1508.5273 174.3128 Q1508.5273 163.6097 1514.4023 157.4769 Q1520.2773 151.3441 1530.5117 151.3441 Q1533.8398 151.3441 1537.0039 152.0316 Q1540.168 152.7191 1543.1367 154.0785 ZM1575.5117 174.1566 Q1566.8086 174.1566 1563.4492 176.1488 Q1560.0898 178.141 1560.0898 182.9535 Q1560.0898 186.7816 1562.6055 189.0238 Q1565.1211 191.266 1569.4648 191.266 Q1575.4336 191.266 1579.0508 187.0316 Q1582.668 182.7972 1582.668 175.766 L1582.668 174.1566 L1575.5117 174.1566 ZM1589.8555 171.1878 L1589.8555 196.1566 L1582.668 196.1566 L1582.668 189.516 Q1580.1992 193.5003 1576.5273 195.3988 Q1572.8555 197.2972 1567.543 197.2972 Q1560.8242 197.2972 1556.8633 193.5238 Q1552.9023 189.7503 1552.9023 183.4222 Q1552.9023 176.0316 1557.8398 172.2816 Q1562.7773 168.5316 1572.5898 168.5316 L1582.668 168.5316 L1582.668 167.8285 Q1582.668 162.8753 1579.4023 160.1566 Q1576.1367 157.4378 1570.2461 157.4378 Q1566.4961 157.4378 1562.9414 158.3363 Q1559.3867 159.2347 1556.1055 161.0316 L1556.1055 154.391 Q1560.043 152.8753 1563.7539 152.1097 Q1567.4648 151.3441 1570.9805 151.3441 Q1580.4805 151.3441 1585.168 156.266 Q1589.8555 161.1878 1589.8555 171.1878 ZM1611.7695 139.9847 L1611.7695 152.4066 L1626.5664 152.4066 L1626.5664 157.9847 L1611.7695 157.9847 L1611.7695 181.7347 Q1611.7695 187.0941 1613.2305 188.6175 Q1614.6914 190.141 1619.1914 190.141 L1626.5664 190.141 L1626.5664 196.1566 L1619.1914 196.1566 Q1610.8633 196.1566 1607.6992 193.0472 Q1604.5352 189.9378 1604.5352 181.7347 L1604.5352 157.9847 L1599.2695 157.9847 L1599.2695 152.4066 L1604.5352 152.4066 L1604.5352 139.9847 L1611.7695 139.9847 ZM1636.0273 152.4066 L1643.2148 152.4066 L1643.2148 196.1566 L1636.0273 196.1566 L1636.0273 152.4066 ZM1636.0273 135.3753 L1643.2148 135.3753 L1643.2148 144.4691 L1636.0273 144.4691 L1636.0273 135.3753 ZM1675.207 157.4378 Q1669.4258 157.4378 1666.0664 161.9535 Q1662.707 166.4691 1662.707 174.3128 Q1662.707 182.1722 1666.043 186.68 Q1669.3789 191.1878 1675.207 191.1878 Q1680.9414 191.1878 1684.3008 186.6566 Q1687.6602 182.1253 1687.6602 174.3128 Q1687.6602 166.5472 1684.3008 161.9925 Q1680.9414 157.4378 1675.207 157.4378 ZM1675.207 151.3441 Q1684.582 151.3441 1689.9336 157.4378 Q1695.2852 163.5316 1695.2852 174.3128 Q1695.2852 185.0628 1689.9336 191.18 Q1684.582 197.2972 1675.207 197.2972 Q1665.7852 197.2972 1660.457 191.18 Q1655.1289 185.0628 1655.1289 174.3128 Q1655.1289 163.5316 1660.457 157.4378 Q1665.7852 151.3441 1675.207 151.3441 ZM1743.5586 169.7503 L1743.5586 196.1566 L1736.3711 196.1566 L1736.3711 169.9847 Q1736.3711 163.766 1733.9492 160.68 Q1731.5273 157.5941 1726.6836 157.5941 Q1720.8711 157.5941 1717.5117 161.305 Q1714.1523 165.016 1714.1523 171.4222 L1714.1523 196.1566 L1706.918 196.1566 L1706.918 152.4066 L1714.1523 152.4066 L1714.1523 159.2035 Q1716.7305 155.2503 1720.2227 153.2972 Q1723.7148 151.3441 1728.293 151.3441 Q1735.8242 151.3441 1739.6914 156.016 Q1743.5586 160.6878 1743.5586 169.7503 ZM1790.4414 139.9847 L1790.4414 152.4066 L1805.2383 152.4066 L1805.2383 157.9847 L1790.4414 157.9847 L1790.4414 181.7347 Q1790.4414 187.0941 1791.9023 188.6175 Q1793.3633 190.141 1797.8633 190.141 L1805.2383 190.141 L1805.2383 196.1566 L1797.8633 196.1566 Q1789.5352 196.1566 1786.3711 193.0472 Q1783.207 189.9378 1783.207 181.7347 L1783.207 157.9847 L1777.9414 157.9847 L1777.9414 152.4066 L1783.207 152.4066 L1783.207 139.9847 L1790.4414 139.9847 ZM1831.6523 157.4378 Q1825.8711 157.4378 1822.5117 161.9535 Q1819.1523 166.4691 1819.1523 174.3128 Q1819.1523 182.1722 1822.4883 186.68 Q1825.8242 191.1878 1831.6523 191.1878 Q1837.3867 191.1878 1840.7461 186.6566 Q1844.1055 182.1253 1844.1055 174.3128 Q1844.1055 166.5472 1840.7461 161.9925 Q1837.3867 157.4378 1831.6523 157.4378 ZM1831.6523 151.3441 Q1841.0273 151.3441 1846.3789 157.4378 Q1851.7305 163.5316 1851.7305 174.3128 Q1851.7305 185.0628 1846.3789 191.18 Q1841.0273 197.2972 1831.6523 197.2972 Q1822.2305 197.2972 1816.9023 191.18 Q1811.5742 185.0628 1811.5742 174.3128 Q1811.5742 163.5316 1816.9023 157.4378 Q1822.2305 151.3441 1831.6523 151.3441 ZM1889.0742 152.4066 L1896.2617 152.4066 L1896.2617 196.1566 L1889.0742 196.1566 L1889.0742 152.4066 ZM1889.0742 135.3753 L1896.2617 135.3753 L1896.2617 144.4691 L1889.0742 144.4691 L1889.0742 135.3753 ZM1945.3633 160.7972 Q1948.0508 155.9535 1951.8008 153.6488 Q1955.5508 151.3441 1960.6289 151.3441 Q1967.4727 151.3441 1971.1836 156.1331 Q1974.8945 160.9222 1974.8945 169.7503 L1974.8945 196.1566 L1967.6602 196.1566 L1967.6602 169.9847 Q1967.6602 163.6878 1965.4336 160.641 Q1963.207 157.5941 1958.6445 157.5941 Q1953.0508 157.5941 1949.8086 161.305 Q1946.5664 165.016 1946.5664 171.4222 L1946.5664 196.1566 L1939.3477 196.1566 L1939.3477 169.9847 Q1939.3477 163.6566 1937.1211 160.6253 Q1934.8945 157.5941 1930.2383 157.5941 Q1924.7383 157.5941 1921.4961 161.3285 Q1918.2539 165.0628 1918.2539 171.4222 L1918.2539 196.1566 L1911.0195 196.1566 L1911.0195 152.4066 L1918.2539 152.4066 L1918.2539 159.2035 Q1920.707 155.1722 1924.1445 153.2581 Q1927.582 151.3441 1932.3164 151.3441 Q1937.082 151.3441 1940.418 153.766 Q1943.7539 156.1878 1945.3633 160.7972 ZM1996.1836 189.5941 L1996.1836 212.7972 L1988.9492 212.7972 L1988.9492 152.4066 L1996.1836 152.4066 L1996.1836 159.0472 Q1998.4492 155.141 2001.9023 153.2425 Q2005.3555 151.3441 2010.168 151.3441 Q2018.1367 151.3441 2023.1133 157.6722 Q2028.0898 164.0003 2028.0898 174.3128 Q2028.0898 184.6253 2023.1133 190.9613 Q2018.1367 197.2972 2010.168 197.2972 Q2005.3555 197.2972 2001.9023 195.3988 Q1998.4492 193.5003 1996.1836 189.5941 ZM2020.6367 174.3128 Q2020.6367 166.391 2017.3711 161.8753 Q2014.1055 157.3597 2008.4023 157.3597 Q2002.6992 157.3597 1999.4414 161.8753 Q1996.1836 166.391 1996.1836 174.3128 Q1996.1836 182.2503 1999.4414 186.7581 Q2002.6992 191.266 2008.4023 191.266 Q2014.1055 191.266 2017.3711 186.7581 Q2020.6367 182.2503 2020.6367 174.3128 ZM2040.0117 135.3753 L2047.1992 135.3753 L2047.1992 196.1566 L2040.0117 196.1566 L2040.0117 135.3753 ZM2099.6602 172.4847 L2099.6602 176.0003 L2066.6133 176.0003 Q2067.082 183.4222 2071.082 187.305 Q2075.082 191.1878 2082.2383 191.1878 Q2086.3789 191.1878 2090.2617 190.1722 Q2094.1445 189.1566 2097.9727 187.1253 L2097.9727 193.9222 Q2094.1133 195.5628 2090.0508 196.43 Q2085.9883 197.2972 2081.8008 197.2972 Q2071.332 197.2972 2065.2227 191.1956 Q2059.1133 185.0941 2059.1133 174.7035 Q2059.1133 163.9691 2064.9102 157.6566 Q2070.707 151.3441 2080.5508 151.3441 Q2089.3789 151.3441 2094.5195 157.0316 Q2099.6602 162.7191 2099.6602 172.4847 ZM2092.4727 170.3753 Q2092.3945 164.4691 2089.168 160.9535 Q2085.9414 157.4378 2080.6289 157.4378 Q2074.6133 157.4378 2071.0039 160.8363 Q2067.3945 164.2347 2066.8477 170.4066 L2092.4727 170.3753 ZM2145.5195 160.7972 Q2148.207 155.9535 2151.957 153.6488 Q2155.707 151.3441 2160.7852 151.3441 Q2167.6289 151.3441 2171.3398 156.1331 Q2175.0508 160.9222 2175.0508 169.7503 L2175.0508 196.1566 L2167.8164 196.1566 L2167.8164 169.9847 Q2167.8164 163.6878 2165.5898 160.641 Q2163.3633 157.5941 2158.8008 157.5941 Q2153.207 157.5941 2149.9648 161.305 Q2146.7227 165.016 2146.7227 171.4222 L2146.7227 196.1566 L2139.5039 196.1566 L2139.5039 169.9847 Q2139.5039 163.6566 2137.2773 160.6253 Q2135.0508 157.5941 2130.3945 157.5941 Q2124.8945 157.5941 2121.6523 161.3285 Q2118.4102 165.0628 2118.4102 171.4222 L2118.4102 196.1566 L2111.1758 196.1566 L2111.1758 152.4066 L2118.4102 152.4066 L2118.4102 159.2035 Q2120.8633 155.1722 2124.3008 153.2581 Q2127.7383 151.3441 2132.4727 151.3441 Q2137.2383 151.3441 2140.5742 153.766 Q2143.9102 156.1878 2145.5195 160.7972 ZM2226.8086 172.4847 L2226.8086 176.0003 L2193.7617 176.0003 Q2194.2305 183.4222 2198.2305 187.305 Q2202.2305 191.1878 2209.3867 191.1878 Q2213.5273 191.1878 2217.4102 190.1722 Q2221.293 189.1566 2225.1211 187.1253 L2225.1211 193.9222 Q2221.2617 195.5628 2217.1992 196.43 Q2213.1367 197.2972 2208.9492 197.2972 Q2198.4805 197.2972 2192.3711 191.1956 Q2186.2617 185.0941 2186.2617 174.7035 Q2186.2617 163.9691 2192.0586 157.6566 Q2197.8555 151.3441 2207.6992 151.3441 Q2216.5273 151.3441 2221.668 157.0316 Q2226.8086 162.7191 2226.8086 172.4847 ZM2219.6211 170.3753 Q2219.543 164.4691 2216.3164 160.9535 Q2213.0898 157.4378 2207.7773 157.4378 Q2201.7617 157.4378 2198.1523 160.8363 Q2194.543 164.2347 2193.9961 170.4066 L2219.6211 170.3753 ZM2274.9648 169.7503 L2274.9648 196.1566 L2267.7773 196.1566 L2267.7773 169.9847 Q2267.7773 163.766 2265.3555 160.68 Q2262.9336 157.5941 2258.0898 157.5941 Q2252.2773 157.5941 2248.918 161.305 Q2245.5586 165.016 2245.5586 171.4222 L2245.5586 196.1566 L2238.3242 196.1566 L2238.3242 152.4066 L2245.5586 152.4066 L2245.5586 159.2035 Q2248.1367 155.2503 2251.6289 153.2972 Q2255.1211 151.3441 2259.6992 151.3441 Q2267.2305 151.3441 2271.0977 156.016 Q2274.9648 160.6878 2274.9648 169.7503 ZM2296.418 139.9847 L2296.418 152.4066 L2311.2148 152.4066 L2311.2148 157.9847 L2296.418 157.9847 L2296.418 181.7347 Q2296.418 187.0941 2297.8789 188.6175 Q2299.3398 190.141 2303.8398 190.141 L2311.2148 190.141 L2311.2148 196.1566 L2303.8398 196.1566 Q2295.5117 196.1566 2292.3477 193.0472 Q2289.1836 189.9378 2289.1836 181.7347 L2289.1836 157.9847 L2283.918 157.9847 L2283.918 152.4066 L2289.1836 152.4066 L2289.1836 139.9847 L2296.418 139.9847 ZM2340.5508 174.1566 Q2331.8477 174.1566 2328.4883 176.1488 Q2325.1289 178.141 2325.1289 182.9535 Q2325.1289 186.7816 2327.6445 189.0238 Q2330.1602 191.266 2334.5039 191.266 Q2340.4727 191.266 2344.0898 187.0316 Q2347.707 182.7972 2347.707 175.766 L2347.707 174.1566 L2340.5508 174.1566 ZM2354.8945 171.1878 L2354.8945 196.1566 L2347.707 196.1566 L2347.707 189.516 Q2345.2383 193.5003 2341.5664 195.3988 Q2337.8945 197.2972 2332.582 197.2972 Q2325.8633 197.2972 2321.9023 193.5238 Q2317.9414 189.7503 2317.9414 183.4222 Q2317.9414 176.0316 2322.8789 172.2816 Q2327.8164 168.5316 2337.6289 168.5316 L2347.707 168.5316 L2347.707 167.8285 Q2347.707 162.8753 2344.4414 160.1566 Q2341.1758 157.4378 2335.2852 157.4378 Q2331.5352 157.4378 2327.9805 158.3363 Q2324.4258 159.2347 2321.1445 161.0316 L2321.1445 154.391 Q2325.082 152.8753 2328.793 152.1097 Q2332.5039 151.3441 2336.0195 151.3441 Q2345.5195 151.3441 2350.207 156.266 Q2354.8945 161.1878 2354.8945 171.1878 ZM2376.8086 139.9847 L2376.8086 152.4066 L2391.6055 152.4066 L2391.6055 157.9847 L2376.8086 157.9847 L2376.8086 181.7347 Q2376.8086 187.0941 2378.2695 188.6175 Q2379.7305 190.141 2384.2305 190.141 L2391.6055 190.141 L2391.6055 196.1566 L2384.2305 196.1566 Q2375.9023 196.1566 2372.7383 193.0472 Q2369.5742 189.9378 2369.5742 181.7347 L2369.5742 157.9847 L2364.3086 157.9847 L2364.3086 152.4066 L2369.5742 152.4066 L2369.5742 139.9847 L2376.8086 139.9847 ZM2401.0664 152.4066 L2408.2539 152.4066 L2408.2539 196.1566 L2401.0664 196.1566 L2401.0664 152.4066 ZM2401.0664 135.3753 L2408.2539 135.3753 L2408.2539 144.4691 L2401.0664 144.4691 L2401.0664 135.3753 ZM2440.2461 157.4378 Q2434.4648 157.4378 2431.1055 161.9535 Q2427.7461 166.4691 2427.7461 174.3128 Q2427.7461 182.1722 2431.082 186.68 Q2434.418 191.1878 2440.2461 191.1878 Q2445.9805 191.1878 2449.3398 186.6566 Q2452.6992 182.1253 2452.6992 174.3128 Q2452.6992 166.5472 2449.3398 161.9925 Q2445.9805 157.4378 2440.2461 157.4378 ZM2440.2461 151.3441 Q2449.6211 151.3441 2454.9727 157.4378 Q2460.3242 163.5316 2460.3242 174.3128 Q2460.3242 185.0628 2454.9727 191.18 Q2449.6211 197.2972 2440.2461 197.2972 Q2430.8242 197.2972 2425.4961 191.18 Q2420.168 185.0628 2420.168 174.3128 Q2420.168 163.5316 2425.4961 157.4378 Q2430.8242 151.3441 2440.2461 151.3441 ZM2508.5977 169.7503 L2508.5977 196.1566 L2501.4102 196.1566 L2501.4102 169.9847 Q2501.4102 163.766 2498.9883 160.68 Q2496.5664 157.5941 2491.7227 157.5941 Q2485.9102 157.5941 2482.5508 161.305 Q2479.1914 165.016 2479.1914 171.4222 L2479.1914 196.1566 L2471.957 196.1566 L2471.957 152.4066 L2479.1914 152.4066 L2479.1914 159.2035 Q2481.7695 155.2503 2485.2617 153.2972 Q2488.7539 151.3441 2493.332 151.3441 Q2500.8633 151.3441 2504.7305 156.016 Q2508.5977 160.6878 2508.5977 169.7503 Z" stroke="none" clip-path="url(#clipPath3)"/>
    </g>
  </g>
</svg>
