<?xml version="1.0" encoding="UTF-8"?><svg xmlns="http://www.w3.org/2000/svg" xmlns:xlink="http://www.w3.org/1999/xlink" fill-opacity="1" color-rendering="auto" color-interpolation="auto" text-rendering="auto" stroke="black" stroke-linecap="square" width="1030" stroke-miterlimit="10" shape-rendering="auto" stroke-opacity="1" fill="black" stroke-dasharray="none" font-weight="normal" stroke-width="1" height="631" font-family="'Dialog'" font-style="normal" stroke-linejoin="miter" font-size="12px" stroke-dashoffset="0" image-rendering="auto">
  <!--Generated by ySVG 2.5-->
  <defs id="genericDefs"/>
  <g>
    <defs id="defs1">
      <clipPath clipPathUnits="userSpaceOnUse" id="clipPath1">
        <path d="M0 0 L1030 0 L1030 631 L0 631 L0 0 Z"/>
      </clipPath>
      <clipPath clipPathUnits="userSpaceOnUse" id="clipPath2">
        <path d="M541 22 L1571 22 L1571 653 L541 653 L541 22 Z"/>
      </clipPath>
      <clipPath clipPathUnits="userSpaceOnUse" id="clipPath3">
        <path d="M558 197.2308 L558 478.6058 L1554 478.6058 L1554 197.2308 Z"/>
      </clipPath>
    </defs>
    <g fill="white" text-rendering="geometricPrecision" shape-rendering="geometricPrecision" transform="translate(-541,-22)" stroke="white">
      <rect x="541" width="1030" height="631" y="22" clip-path="url(#clipPath2)" stroke="none"/>
    </g>
    <g text-rendering="geometricPrecision" shape-rendering="geometricPrecision" transform="matrix(1,0,0,1,-541,-22)">
      <path d="M635.2812 227.8676 L635.2812 240.3519 Q629.3125 234.7894 622.5469 232.0316 Q615.7812 229.2738 608.1562 229.2738 Q593.1562 229.2738 585.1875 238.4457 Q577.2188 247.6176 577.2188 264.9613 Q577.2188 282.2426 585.1875 291.4144 Q593.1562 300.5863 608.1562 300.5863 Q615.7812 300.5863 622.5469 297.8363 Q629.3125 295.0863 635.2812 289.5082 L635.2812 301.8832 Q629.0781 306.1019 622.1328 308.2113 Q615.1875 310.3207 607.4531 310.3207 Q587.5938 310.3207 576.1641 298.1566 Q564.7344 285.9926 564.7344 264.9613 Q564.7344 243.8676 576.1641 231.7113 Q587.5938 219.5551 607.4531 219.5551 Q615.3125 219.5551 622.25 221.6332 Q629.1875 223.7113 635.2812 227.8676 ZM678.5234 250.5551 Q669.8516 250.5551 664.8125 257.3207 Q659.7734 264.0863 659.7734 275.8676 Q659.7734 287.6332 664.7891 294.4066 Q669.8047 301.1801 678.5234 301.1801 Q687.1484 301.1801 692.1875 294.3832 Q697.2266 287.5863 697.2266 275.8676 Q697.2266 264.1957 692.1875 257.3754 Q687.1484 250.5551 678.5234 250.5551 ZM678.5234 241.4144 Q692.5859 241.4144 700.6172 250.5551 Q708.6484 259.6957 708.6484 275.8676 Q708.6484 291.9769 700.6172 301.1488 Q692.5859 310.3207 678.5234 310.3207 Q664.4141 310.3207 656.4141 301.1488 Q648.4141 291.9769 648.4141 275.8676 Q648.4141 259.6957 656.4141 250.5551 Q664.4141 241.4144 678.5234 241.4144 ZM781.0664 269.0082 L781.0664 308.6176 L770.2852 308.6176 L770.2852 269.3519 Q770.2852 260.0394 766.6523 255.4144 Q763.0195 250.7894 755.7539 250.7894 Q747.0195 250.7894 741.9805 256.3519 Q736.9414 261.9144 736.9414 271.5238 L736.9414 308.6176 L726.1133 308.6176 L726.1133 242.9926 L736.9414 242.9926 L736.9414 253.1801 Q740.8164 247.2738 746.0586 244.3441 Q751.3008 241.4144 758.1602 241.4144 Q769.4727 241.4144 775.2695 248.4144 Q781.0664 255.4144 781.0664 269.0082 ZM849.793 245.5082 L849.793 255.5863 Q845.2305 253.0707 840.6289 251.8129 Q836.0273 250.5551 831.3398 250.5551 Q820.8555 250.5551 815.0508 257.2035 Q809.2461 263.8519 809.2461 275.8676 Q809.2461 287.8676 815.0508 294.5238 Q820.8555 301.1801 831.3398 301.1801 Q836.0273 301.1801 840.6289 299.9144 Q845.2305 298.6488 849.793 296.1332 L849.793 306.1019 Q845.293 308.2113 840.457 309.266 Q835.6211 310.3207 830.168 310.3207 Q815.3398 310.3207 806.6133 301.0004 Q797.8867 291.6801 797.8867 275.8676 Q797.8867 259.8051 806.707 250.6097 Q815.5273 241.4144 830.8711 241.4144 Q835.8555 241.4144 840.5977 242.4379 Q845.3398 243.4613 849.793 245.5082 ZM868.5508 217.4457 L879.332 217.4457 L879.332 308.6176 L868.5508 308.6176 L868.5508 217.4457 ZM900.7812 282.7113 L900.7812 242.9926 L911.5625 242.9926 L911.5625 282.3051 Q911.5625 291.6176 915.1953 296.2816 Q918.8281 300.9457 926.0938 300.9457 Q934.8125 300.9457 939.8828 295.3754 Q944.9531 289.8051 944.9531 280.1957 L944.9531 242.9926 L955.7344 242.9926 L955.7344 308.6176 L944.9531 308.6176 L944.9531 298.5394 Q941.0312 304.5082 935.8438 307.4144 Q930.6562 310.3207 923.7969 310.3207 Q912.5 310.3207 906.6406 303.2894 Q900.7812 296.2582 900.7812 282.7113 ZM1019.7734 244.9301 L1019.7734 255.1176 Q1015.2109 252.7738 1010.2891 251.6019 Q1005.3672 250.4301 1000.0859 250.4301 Q992.0703 250.4301 988.0547 252.891 Q984.0391 255.3519 984.0391 260.2738 Q984.0391 264.0238 986.9062 266.1644 Q989.7734 268.3051 998.4453 270.2426 L1002.1484 271.0551 Q1013.6328 273.5238 1018.4609 278.0004 Q1023.2891 282.4769 1023.2891 290.5082 Q1023.2891 299.6488 1016.0547 304.9847 Q1008.8203 310.3207 996.1641 310.3207 Q990.8984 310.3207 985.1797 309.2894 Q979.4609 308.2582 973.1328 306.2113 L973.1328 295.0863 Q979.1172 298.1801 984.9141 299.7347 Q990.7109 301.2894 996.3984 301.2894 Q1004.0234 301.2894 1008.125 298.6801 Q1012.2266 296.0707 1012.2266 291.3363 Q1012.2266 286.9301 1009.2656 284.5863 Q1006.3047 282.2426 996.2891 280.0863 L992.5391 279.1957 Q982.5078 277.0863 978.0547 272.7269 Q973.6016 268.3676 973.6016 260.7426 Q973.6016 251.4926 980.1641 246.4535 Q986.7266 241.4144 998.8047 241.4144 Q1004.7734 241.4144 1010.0469 242.2894 Q1015.3203 243.1644 1019.7734 244.9301 ZM1040.4648 242.9926 L1051.2461 242.9926 L1051.2461 308.6176 L1040.4648 308.6176 L1040.4648 242.9926 ZM1040.4648 217.4457 L1051.2461 217.4457 L1051.2461 231.1019 L1040.4648 231.1019 L1040.4648 217.4457 ZM1099.2266 250.5551 Q1090.5547 250.5551 1085.5156 257.3207 Q1080.4766 264.0863 1080.4766 275.8676 Q1080.4766 287.6332 1085.4922 294.4066 Q1090.5078 301.1801 1099.2266 301.1801 Q1107.8516 301.1801 1112.8906 294.3832 Q1117.9297 287.5863 1117.9297 275.8676 Q1117.9297 264.1957 1112.8906 257.3754 Q1107.8516 250.5551 1099.2266 250.5551 ZM1099.2266 241.4144 Q1113.2891 241.4144 1121.3203 250.5551 Q1129.3516 259.6957 1129.3516 275.8676 Q1129.3516 291.9769 1121.3203 301.1488 Q1113.2891 310.3207 1099.2266 310.3207 Q1085.1172 310.3207 1077.1172 301.1488 Q1069.1172 291.9769 1069.1172 275.8676 Q1069.1172 259.6957 1077.1172 250.5551 Q1085.1172 241.4144 1099.2266 241.4144 ZM1201.7695 269.0082 L1201.7695 308.6176 L1190.9883 308.6176 L1190.9883 269.3519 Q1190.9883 260.0394 1187.3555 255.4144 Q1183.7227 250.7894 1176.457 250.7894 Q1167.7227 250.7894 1162.6836 256.3519 Q1157.6445 261.9144 1157.6445 271.5238 L1157.6445 308.6176 L1146.8164 308.6176 L1146.8164 242.9926 L1157.6445 242.9926 L1157.6445 253.1801 Q1161.5195 247.2738 1166.7617 244.3441 Q1172.0039 241.4144 1178.8633 241.4144 Q1190.1758 241.4144 1195.9727 248.4144 Q1201.7695 255.4144 1201.7695 269.0082 ZM1291.25 275.6332 Q1278.1719 275.6332 1273.1328 278.6176 Q1268.0938 281.6019 1268.0938 288.8051 Q1268.0938 294.5551 1271.875 297.9222 Q1275.6562 301.2894 1282.1562 301.2894 Q1291.125 301.2894 1296.5469 294.9301 Q1301.9688 288.5707 1301.9688 278.0238 L1301.9688 275.6332 L1291.25 275.6332 ZM1312.75 271.1801 L1312.75 308.6176 L1301.9688 308.6176 L1301.9688 298.6488 Q1298.2812 304.6332 1292.7734 307.4769 Q1287.2656 310.3207 1279.2969 310.3207 Q1269.2188 310.3207 1263.2656 304.6644 Q1257.3125 299.0082 1257.3125 289.5082 Q1257.3125 278.4457 1264.7266 272.8207 Q1272.1406 267.1957 1286.8438 267.1957 L1301.9688 267.1957 L1301.9688 266.1332 Q1301.9688 258.6957 1297.0781 254.6254 Q1292.1875 250.5551 1283.3281 250.5551 Q1277.7031 250.5551 1272.375 251.8988 Q1267.0469 253.2426 1262.125 255.9457 L1262.125 245.9769 Q1268.0469 243.6957 1273.6094 242.5551 Q1279.1719 241.4144 1284.4531 241.4144 Q1298.6875 241.4144 1305.7188 248.7972 Q1312.75 256.1801 1312.75 271.1801 ZM1389.5039 269.0082 L1389.5039 308.6176 L1378.7227 308.6176 L1378.7227 269.3519 Q1378.7227 260.0394 1375.0898 255.4144 Q1371.457 250.7894 1364.1914 250.7894 Q1355.457 250.7894 1350.418 256.3519 Q1345.3789 261.9144 1345.3789 271.5238 L1345.3789 308.6176 L1334.5508 308.6176 L1334.5508 242.9926 L1345.3789 242.9926 L1345.3789 253.1801 Q1349.2539 247.2738 1354.4961 244.3441 Q1359.7383 241.4144 1366.5977 241.4144 Q1377.9102 241.4144 1383.707 248.4144 Q1389.5039 255.4144 1389.5039 269.0082 ZM1454.1992 252.9457 L1454.1992 217.4457 L1464.9805 217.4457 L1464.9805 308.6176 L1454.1992 308.6176 L1454.1992 298.7738 Q1450.793 304.6332 1445.6055 307.4769 Q1440.418 310.3207 1433.1523 310.3207 Q1421.2617 310.3207 1413.793 300.8285 Q1406.3242 291.3363 1406.3242 275.8676 Q1406.3242 260.3988 1413.793 250.9066 Q1421.2617 241.4144 1433.1523 241.4144 Q1440.418 241.4144 1445.6055 244.2504 Q1450.793 247.0863 1454.1992 252.9457 ZM1417.4492 275.8676 Q1417.4492 287.7582 1422.3477 294.5238 Q1427.2461 301.2894 1435.793 301.2894 Q1444.3555 301.2894 1449.2773 294.5238 Q1454.1992 287.7582 1454.1992 275.8676 Q1454.1992 263.9613 1449.2773 257.1957 Q1444.3555 250.4301 1435.793 250.4301 Q1427.2461 250.4301 1422.3477 257.1957 Q1417.4492 263.9613 1417.4492 275.8676 Z" stroke="none" clip-path="url(#clipPath3)"/>
      <path d="M569.7812 360.8207 L620.0469 360.8207 L620.0469 370.7894 L581.6094 370.7894 L581.6094 396.5707 L616.2969 396.5707 L616.2969 406.5238 L581.6094 406.5238 L581.6094 448.3051 L569.7812 448.3051 L569.7812 360.8207 ZM637.2266 422.3988 L637.2266 382.6801 L648.0078 382.6801 L648.0078 421.9926 Q648.0078 431.3051 651.6406 435.9691 Q655.2734 440.6332 662.5391 440.6332 Q671.2578 440.6332 676.3281 435.0629 Q681.3984 429.4926 681.3984 419.8832 L681.3984 382.6801 L692.1797 382.6801 L692.1797 448.3051 L681.3984 448.3051 L681.3984 438.2269 Q677.4766 444.1957 672.2891 447.1019 Q667.1016 450.0082 660.2422 450.0082 Q648.9453 450.0082 643.0859 442.9769 Q637.2266 435.9457 637.2266 422.3988 ZM725.0469 364.0394 L725.0469 382.6801 L747.2656 382.6801 L747.2656 391.0551 L725.0469 391.0551 L725.0469 426.6801 Q725.0469 434.7113 727.25 436.9926 Q729.4531 439.2738 736.1875 439.2738 L747.2656 439.2738 L747.2656 448.3051 L736.1875 448.3051 Q723.7031 448.3051 718.9609 443.6488 Q714.2188 438.9926 714.2188 426.6801 L714.2188 391.0551 L706.2969 391.0551 L706.2969 382.6801 L714.2188 382.6801 L714.2188 364.0394 L725.0469 364.0394 ZM760.332 422.3988 L760.332 382.6801 L771.1133 382.6801 L771.1133 421.9926 Q771.1133 431.3051 774.7461 435.9691 Q778.3789 440.6332 785.6445 440.6332 Q794.3633 440.6332 799.4336 435.0629 Q804.5039 429.4926 804.5039 419.8832 L804.5039 382.6801 L815.2852 382.6801 L815.2852 448.3051 L804.5039 448.3051 L804.5039 438.2269 Q800.582 444.1957 795.3945 447.1019 Q790.207 450.0082 783.3477 450.0082 Q772.0508 450.0082 766.1914 442.9769 Q760.332 435.9457 760.332 422.3988 ZM875.5273 392.7582 Q873.6992 391.6957 871.5664 391.2035 Q869.4336 390.7113 866.8555 390.7113 Q857.7148 390.7113 852.8164 396.6566 Q847.918 402.6019 847.918 413.7269 L847.918 448.3051 L837.0898 448.3051 L837.0898 382.6801 L847.918 382.6801 L847.918 392.8676 Q851.3242 386.8988 856.7695 384.0004 Q862.2148 381.1019 870.0117 381.1019 Q871.1211 381.1019 872.4727 381.2426 Q873.8242 381.3832 875.4648 381.6801 L875.5273 392.7582 ZM942.957 412.7894 L942.957 418.0707 L893.3945 418.0707 Q894.0977 429.1957 900.1055 435.0316 Q906.1133 440.8676 916.832 440.8676 Q923.0352 440.8676 928.8711 439.3441 Q934.707 437.8207 940.4414 434.7738 L940.4414 444.9613 Q934.6445 447.4301 928.5508 448.7191 Q922.457 450.0082 916.1914 450.0082 Q900.4883 450.0082 891.3164 440.8676 Q882.1445 431.7269 882.1445 416.1332 Q882.1445 400.0238 890.8477 390.5629 Q899.5508 381.1019 914.3164 381.1019 Q927.5508 381.1019 935.2539 389.6254 Q942.957 398.1488 942.957 412.7894 ZM932.1758 409.6332 Q932.0664 400.7894 927.2305 395.516 Q922.3945 390.2426 914.4258 390.2426 Q905.4102 390.2426 899.9883 395.3363 Q894.5664 400.4301 893.7383 409.6957 L932.1758 409.6332 ZM992.5391 382.6801 L1003.3203 382.6801 L1016.7891 433.8832 L1030.2109 382.6801 L1042.9297 382.6801 L1056.3984 433.8832 L1069.8203 382.6801 L1080.6016 382.6801 L1063.4297 448.3051 L1050.7109 448.3051 L1036.6016 394.5082 L1022.4141 448.3051 L1009.6953 448.3051 L992.5391 382.6801 ZM1122.3711 390.2426 Q1113.6992 390.2426 1108.6602 397.0082 Q1103.6211 403.7738 1103.6211 415.5551 Q1103.6211 427.3207 1108.6367 434.0941 Q1113.6523 440.8676 1122.3711 440.8676 Q1130.9961 440.8676 1136.0352 434.0707 Q1141.0742 427.2738 1141.0742 415.5551 Q1141.0742 403.8832 1136.0352 397.0629 Q1130.9961 390.2426 1122.3711 390.2426 ZM1122.3711 381.1019 Q1136.4336 381.1019 1144.4648 390.2426 Q1152.4961 399.3832 1152.4961 415.5551 Q1152.4961 431.6644 1144.4648 440.8363 Q1136.4336 450.0082 1122.3711 450.0082 Q1108.2617 450.0082 1100.2617 440.8363 Q1092.2617 431.6644 1092.2617 415.5551 Q1092.2617 399.3832 1100.2617 390.2426 Q1108.2617 381.1019 1122.3711 381.1019 ZM1208.3984 392.7582 Q1206.5703 391.6957 1204.4375 391.2035 Q1202.3047 390.7113 1199.7266 390.7113 Q1190.5859 390.7113 1185.6875 396.6566 Q1180.7891 402.6019 1180.7891 413.7269 L1180.7891 448.3051 L1169.9609 448.3051 L1169.9609 382.6801 L1180.7891 382.6801 L1180.7891 392.8676 Q1184.1953 386.8988 1189.6406 384.0004 Q1195.0859 381.1019 1202.8828 381.1019 Q1203.9922 381.1019 1205.3438 381.2426 Q1206.6953 381.3832 1208.3359 381.6801 L1208.3984 392.7582 ZM1219.2969 357.1332 L1230.125 357.1332 L1230.125 410.9769 L1262.2969 382.6801 L1276.0625 382.6801 L1241.2656 413.3832 L1277.5312 448.3051 L1263.4688 448.3051 L1230.125 416.2582 L1230.125 448.3051 L1219.2969 448.3051 L1219.2969 357.1332 Z" clip-path="url(#clipPath3)" stroke="none"/>
      <rect stroke-linecap="butt" x="556" y="37.9183" clip-path="url(#clipPath2)" fill="none" width="1000" height="600" stroke-miterlimit="1.45"/>
      <circle fill="rgb(83,123,240)" r="76.5" clip-path="url(#clipPath2)" cx="1473" cy="551.4183" stroke="none"/>
    </g>
    <g stroke-linecap="butt" font-size="130px" transform="matrix(1,0,0,1,-541,-22)" fill="white" text-rendering="geometricPrecision" font-family="sans-serif" shape-rendering="geometricPrecision" stroke="white" stroke-miterlimit="1.45">
      <text x="1431.645" xml:space="preserve" y="596.4232" clip-path="url(#clipPath2)" stroke="none">5</text>
    </g>
  </g>
</svg>
