<?xml version="1.0" encoding="UTF-8"?><svg xmlns="http://www.w3.org/2000/svg" xmlns:xlink="http://www.w3.org/1999/xlink" fill-opacity="1" color-rendering="auto" color-interpolation="auto" text-rendering="auto" stroke="black" stroke-linecap="square" width="1030" stroke-miterlimit="10" shape-rendering="auto" stroke-opacity="1" fill="black" stroke-dasharray="none" font-weight="normal" stroke-width="1" height="631" font-family="'Dialog'" font-style="normal" stroke-linejoin="miter" font-size="12px" stroke-dashoffset="0" image-rendering="auto">
  <!--Generated by ySVG 2.5-->
  <defs id="genericDefs"/>
  <g>
    <defs id="defs1">
      <clipPath clipPathUnits="userSpaceOnUse" id="clipPath1">
        <path d="M0 0 L1030 0 L1030 631 L0 631 L0 0 Z"/>
      </clipPath>
      <clipPath clipPathUnits="userSpaceOnUse" id="clipPath2">
        <path d="M541 22 L1571 22 L1571 653 L541 653 L541 22 Z"/>
      </clipPath>
      <clipPath clipPathUnits="userSpaceOnUse" id="clipPath3">
        <path d="M558 197.2308 L558 478.6058 L1554 478.6058 L1554 197.2308 Z"/>
      </clipPath>
    </defs>
    <g fill="white" text-rendering="geometricPrecision" shape-rendering="geometricPrecision" transform="translate(-541,-22)" stroke="white">
      <rect x="541" width="1030" height="631" y="22" clip-path="url(#clipPath2)" stroke="none"/>
    </g>
    <g text-rendering="geometricPrecision" shape-rendering="geometricPrecision" transform="matrix(1,0,0,1,-541,-22)">
      <path d="M637.1602 232.7894 L621.1133 276.3363 L653.2695 276.3363 L637.1602 232.7894 ZM630.4883 221.1332 L643.8945 221.1332 L677.2383 308.6176 L664.9414 308.6176 L656.9727 286.1801 L617.5352 286.1801 L609.5664 308.6176 L597.082 308.6176 L630.4883 221.1332 ZM736.7656 245.5082 L736.7656 255.5863 Q732.2031 253.0707 727.6016 251.8129 Q723 250.5551 718.3125 250.5551 Q707.8281 250.5551 702.0234 257.2035 Q696.2188 263.8519 696.2188 275.8676 Q696.2188 287.8676 702.0234 294.5238 Q707.8281 301.1801 718.3125 301.1801 Q723 301.1801 727.6016 299.9144 Q732.2031 298.6488 736.7656 296.1332 L736.7656 306.1019 Q732.2656 308.2113 727.4297 309.266 Q722.5938 310.3207 717.1406 310.3207 Q702.3125 310.3207 693.5859 301.0004 Q684.8594 291.6801 684.8594 275.8676 Q684.8594 259.8051 693.6797 250.6097 Q702.5 241.4144 717.8438 241.4144 Q722.8281 241.4144 727.5703 242.4379 Q732.3125 243.4613 736.7656 245.5082 ZM802.7422 245.5082 L802.7422 255.5863 Q798.1797 253.0707 793.5781 251.8129 Q788.9766 250.5551 784.2891 250.5551 Q773.8047 250.5551 768 257.2035 Q762.1953 263.8519 762.1953 275.8676 Q762.1953 287.8676 768 294.5238 Q773.8047 301.1801 784.2891 301.1801 Q788.9766 301.1801 793.5781 299.9144 Q798.1797 298.6488 802.7422 296.1332 L802.7422 306.1019 Q798.2422 308.2113 793.4062 309.266 Q788.5703 310.3207 783.1172 310.3207 Q768.2891 310.3207 759.5625 301.0004 Q750.8359 291.6801 750.8359 275.8676 Q750.8359 259.8051 759.6562 250.6097 Q768.4766 241.4144 783.8203 241.4144 Q788.8047 241.4144 793.5469 242.4379 Q798.2891 243.4613 802.7422 245.5082 ZM846.9219 250.5551 Q838.25 250.5551 833.2109 257.3207 Q828.1719 264.0863 828.1719 275.8676 Q828.1719 287.6332 833.1875 294.4066 Q838.2031 301.1801 846.9219 301.1801 Q855.5469 301.1801 860.5859 294.3832 Q865.625 287.5863 865.625 275.8676 Q865.625 264.1957 860.5859 257.3754 Q855.5469 250.5551 846.9219 250.5551 ZM846.9219 241.4144 Q860.9844 241.4144 869.0156 250.5551 Q877.0469 259.6957 877.0469 275.8676 Q877.0469 291.9769 869.0156 301.1488 Q860.9844 310.3207 846.9219 310.3207 Q832.8125 310.3207 824.8125 301.1488 Q816.8125 291.9769 816.8125 275.8676 Q816.8125 259.6957 824.8125 250.5551 Q832.8125 241.4144 846.9219 241.4144 ZM893.8086 282.7113 L893.8086 242.9926 L904.5898 242.9926 L904.5898 282.3051 Q904.5898 291.6176 908.2227 296.2816 Q911.8555 300.9457 919.1211 300.9457 Q927.8398 300.9457 932.9102 295.3754 Q937.9805 289.8051 937.9805 280.1957 L937.9805 242.9926 L948.7617 242.9926 L948.7617 308.6176 L937.9805 308.6176 L937.9805 298.5394 Q934.0586 304.5082 928.8711 307.4144 Q923.6836 310.3207 916.8242 310.3207 Q905.5273 310.3207 899.668 303.2894 Q893.8086 296.2582 893.8086 282.7113 ZM1025.5195 269.0082 L1025.5195 308.6176 L1014.7383 308.6176 L1014.7383 269.3519 Q1014.7383 260.0394 1011.1055 255.4144 Q1007.4727 250.7894 1000.207 250.7894 Q991.4727 250.7894 986.4336 256.3519 Q981.3945 261.9144 981.3945 271.5238 L981.3945 308.6176 L970.5664 308.6176 L970.5664 242.9926 L981.3945 242.9926 L981.3945 253.1801 Q985.2695 247.2738 990.5117 244.3441 Q995.7539 241.4144 1002.6133 241.4144 Q1013.9258 241.4144 1019.7227 248.4144 Q1025.5195 255.4144 1025.5195 269.0082 ZM1057.6836 224.3519 L1057.6836 242.9926 L1079.9023 242.9926 L1079.9023 251.3676 L1057.6836 251.3676 L1057.6836 286.9926 Q1057.6836 295.0238 1059.8867 297.3051 Q1062.0898 299.5863 1068.8242 299.5863 L1079.9023 299.5863 L1079.9023 308.6176 L1068.8242 308.6176 Q1056.3398 308.6176 1051.5977 303.9613 Q1046.8555 299.3051 1046.8555 286.9926 L1046.8555 251.3676 L1038.9336 251.3676 L1038.9336 242.9926 L1046.8555 242.9926 L1046.8555 224.3519 L1057.6836 224.3519 ZM1123.9062 275.6332 Q1110.8281 275.6332 1105.7891 278.6176 Q1100.75 281.6019 1100.75 288.8051 Q1100.75 294.5551 1104.5312 297.9222 Q1108.3125 301.2894 1114.8125 301.2894 Q1123.7812 301.2894 1129.2031 294.9301 Q1134.625 288.5707 1134.625 278.0238 L1134.625 275.6332 L1123.9062 275.6332 ZM1145.4062 271.1801 L1145.4062 308.6176 L1134.625 308.6176 L1134.625 298.6488 Q1130.9375 304.6332 1125.4297 307.4769 Q1119.9219 310.3207 1111.9531 310.3207 Q1101.875 310.3207 1095.9219 304.6644 Q1089.9688 299.0082 1089.9688 289.5082 Q1089.9688 278.4457 1097.3828 272.8207 Q1104.7969 267.1957 1119.5 267.1957 L1134.625 267.1957 L1134.625 266.1332 Q1134.625 258.6957 1129.7344 254.6254 Q1124.8438 250.5551 1115.9844 250.5551 Q1110.3594 250.5551 1105.0312 251.8988 Q1099.7031 253.2426 1094.7812 255.9457 L1094.7812 245.9769 Q1100.7031 243.6957 1106.2656 242.5551 Q1111.8281 241.4144 1117.1094 241.4144 Q1131.3438 241.4144 1138.375 248.7972 Q1145.4062 256.1801 1145.4062 271.1801 ZM1214.7227 275.8676 Q1214.7227 263.9613 1209.832 257.1957 Q1204.9414 250.4301 1196.3789 250.4301 Q1187.832 250.4301 1182.9336 257.1957 Q1178.0352 263.9613 1178.0352 275.8676 Q1178.0352 287.7582 1182.9336 294.5238 Q1187.832 301.2894 1196.3789 301.2894 Q1204.9414 301.2894 1209.832 294.5238 Q1214.7227 287.7582 1214.7227 275.8676 ZM1178.0352 252.9457 Q1181.4414 247.0863 1186.6289 244.2504 Q1191.8164 241.4144 1199.0195 241.4144 Q1210.9727 241.4144 1218.4414 250.9066 Q1225.9102 260.3988 1225.9102 275.8676 Q1225.9102 291.3363 1218.4414 300.8285 Q1210.9727 310.3207 1199.0195 310.3207 Q1191.8164 310.3207 1186.6289 307.4769 Q1181.4414 304.6332 1178.0352 298.7738 L1178.0352 308.6176 L1167.207 308.6176 L1167.207 217.4457 L1178.0352 217.4457 L1178.0352 252.9457 ZM1243.7852 242.9926 L1254.5664 242.9926 L1254.5664 308.6176 L1243.7852 308.6176 L1243.7852 242.9926 ZM1243.7852 217.4457 L1254.5664 217.4457 L1254.5664 231.1019 L1243.7852 231.1019 L1243.7852 217.4457 ZM1277.125 217.4457 L1287.9062 217.4457 L1287.9062 308.6176 L1277.125 308.6176 L1277.125 217.4457 ZM1310.4648 242.9926 L1321.2461 242.9926 L1321.2461 308.6176 L1310.4648 308.6176 L1310.4648 242.9926 ZM1310.4648 217.4457 L1321.2461 217.4457 L1321.2461 231.1019 L1310.4648 231.1019 L1310.4648 217.4457 ZM1354.4609 224.3519 L1354.4609 242.9926 L1376.6797 242.9926 L1376.6797 251.3676 L1354.4609 251.3676 L1354.4609 286.9926 Q1354.4609 295.0238 1356.6641 297.3051 Q1358.8672 299.5863 1365.6016 299.5863 L1376.6797 299.5863 L1376.6797 308.6176 L1365.6016 308.6176 Q1353.1172 308.6176 1348.375 303.9613 Q1343.6328 299.3051 1343.6328 286.9926 L1343.6328 251.3676 L1335.7109 251.3676 L1335.7109 242.9926 L1343.6328 242.9926 L1343.6328 224.3519 L1354.4609 224.3519 ZM1418.1523 314.7113 Q1413.5898 326.4301 1409.2539 330.0082 Q1404.918 333.5863 1397.6523 333.5863 L1389.043 333.5863 L1389.043 324.5551 L1395.3711 324.5551 Q1399.8242 324.5551 1402.2852 322.4457 Q1404.7461 320.3363 1407.7305 312.4926 L1409.668 307.5551 L1383.1211 242.9926 L1394.543 242.9926 L1415.0586 294.3207 L1435.5586 242.9926 L1446.9805 242.9926 L1418.1523 314.7113 Z" stroke="none" clip-path="url(#clipPath3)"/>
      <path d="M607.9258 360.8207 L625.5664 360.8207 L647.8789 420.3519 L670.332 360.8207 L687.957 360.8207 L687.957 448.3051 L676.4258 448.3051 L676.4258 371.4926 L653.8633 431.4926 L641.9727 431.4926 L619.4102 371.4926 L619.4102 448.3051 L607.9258 448.3051 L607.9258 360.8207 ZM736.4141 390.2426 Q727.7422 390.2426 722.7031 397.0082 Q717.6641 403.7738 717.6641 415.5551 Q717.6641 427.3207 722.6797 434.0941 Q727.6953 440.8676 736.4141 440.8676 Q745.0391 440.8676 750.0781 434.0707 Q755.1172 427.2738 755.1172 415.5551 Q755.1172 403.8832 750.0781 397.0629 Q745.0391 390.2426 736.4141 390.2426 ZM736.4141 381.1019 Q750.4766 381.1019 758.5078 390.2426 Q766.5391 399.3832 766.5391 415.5551 Q766.5391 431.6644 758.5078 440.8363 Q750.4766 450.0082 736.4141 450.0082 Q722.3047 450.0082 714.3047 440.8363 Q706.3047 431.6644 706.3047 415.5551 Q706.3047 399.3832 714.3047 390.2426 Q722.3047 381.1019 736.4141 381.1019 ZM838.957 408.6957 L838.957 448.3051 L828.1758 448.3051 L828.1758 409.0394 Q828.1758 399.7269 824.543 395.1019 Q820.9102 390.4769 813.6445 390.4769 Q804.9102 390.4769 799.8711 396.0394 Q794.832 401.6019 794.832 411.2113 L794.832 448.3051 L784.0039 448.3051 L784.0039 382.6801 L794.832 382.6801 L794.832 392.8676 Q798.707 386.9613 803.9492 384.0316 Q809.1914 381.1019 816.0508 381.1019 Q827.3633 381.1019 833.1602 388.1019 Q838.957 395.1019 838.957 408.6957 ZM860.4648 382.6801 L871.2461 382.6801 L871.2461 448.3051 L860.4648 448.3051 L860.4648 382.6801 ZM860.4648 357.1332 L871.2461 357.1332 L871.2461 370.7894 L860.4648 370.7894 L860.4648 357.1332 ZM904.4609 364.0394 L904.4609 382.6801 L926.6797 382.6801 L926.6797 391.0551 L904.4609 391.0551 L904.4609 426.6801 Q904.4609 434.7113 906.6641 436.9926 Q908.8672 439.2738 915.6016 439.2738 L926.6797 439.2738 L926.6797 448.3051 L915.6016 448.3051 Q903.1172 448.3051 898.375 443.6488 Q893.6328 438.9926 893.6328 426.6801 L893.6328 391.0551 L885.7109 391.0551 L885.7109 382.6801 L893.6328 382.6801 L893.6328 364.0394 L904.4609 364.0394 ZM966.2773 390.2426 Q957.6055 390.2426 952.5664 397.0082 Q947.5273 403.7738 947.5273 415.5551 Q947.5273 427.3207 952.543 434.0941 Q957.5586 440.8676 966.2773 440.8676 Q974.9023 440.8676 979.9414 434.0707 Q984.9805 427.2738 984.9805 415.5551 Q984.9805 403.8832 979.9414 397.0629 Q974.9023 390.2426 966.2773 390.2426 ZM966.2773 381.1019 Q980.3398 381.1019 988.3711 390.2426 Q996.4023 399.3832 996.4023 415.5551 Q996.4023 431.6644 988.3711 440.8363 Q980.3398 450.0082 966.2773 450.0082 Q952.168 450.0082 944.168 440.8363 Q936.168 431.6644 936.168 415.5551 Q936.168 399.3832 944.168 390.2426 Q952.168 381.1019 966.2773 381.1019 ZM1052.3047 392.7582 Q1050.4766 391.6957 1048.3438 391.2035 Q1046.2109 390.7113 1043.6328 390.7113 Q1034.4922 390.7113 1029.5938 396.6566 Q1024.6953 402.6019 1024.6953 413.7269 L1024.6953 448.3051 L1013.8672 448.3051 L1013.8672 382.6801 L1024.6953 382.6801 L1024.6953 392.8676 Q1028.1016 386.8988 1033.5469 384.0004 Q1038.9922 381.1019 1046.7891 381.1019 Q1047.8984 381.1019 1049.25 381.2426 Q1050.6016 381.3832 1052.2422 381.6801 L1052.3047 392.7582 ZM1063.6094 382.6801 L1074.3906 382.6801 L1074.3906 448.3051 L1063.6094 448.3051 L1063.6094 382.6801 ZM1063.6094 357.1332 L1074.3906 357.1332 L1074.3906 370.7894 L1063.6094 370.7894 L1063.6094 357.1332 ZM1151.4961 408.6957 L1151.4961 448.3051 L1140.7148 448.3051 L1140.7148 409.0394 Q1140.7148 399.7269 1137.082 395.1019 Q1133.4492 390.4769 1126.1836 390.4769 Q1117.4492 390.4769 1112.4102 396.0394 Q1107.3711 401.6019 1107.3711 411.2113 L1107.3711 448.3051 L1096.543 448.3051 L1096.543 382.6801 L1107.3711 382.6801 L1107.3711 392.8676 Q1111.2461 386.9613 1116.4883 384.0316 Q1121.7305 381.1019 1128.5898 381.1019 Q1139.9023 381.1019 1145.6992 388.1019 Q1151.4961 395.1019 1151.4961 408.6957 ZM1216.1914 414.7269 Q1216.1914 403.0082 1211.3555 396.5629 Q1206.5195 390.1176 1197.7852 390.1176 Q1189.1133 390.1176 1184.2773 396.5629 Q1179.4414 403.0082 1179.4414 414.7269 Q1179.4414 426.3832 1184.2773 432.8285 Q1189.1133 439.2738 1197.7852 439.2738 Q1206.5195 439.2738 1211.3555 432.8285 Q1216.1914 426.3832 1216.1914 414.7269 ZM1226.9727 440.1644 Q1226.9727 456.9144 1219.5273 465.0941 Q1212.082 473.2738 1196.7383 473.2738 Q1191.0508 473.2738 1186.0117 472.4222 Q1180.9727 471.5707 1176.2227 469.8051 L1176.2227 459.3207 Q1180.9727 461.8988 1185.5977 463.1332 Q1190.2227 464.3676 1195.0352 464.3676 Q1205.6445 464.3676 1210.918 458.8285 Q1216.1914 453.2894 1216.1914 442.0863 L1216.1914 436.7582 Q1212.8477 442.5551 1207.6289 445.4301 Q1202.4102 448.3051 1195.1445 448.3051 Q1183.082 448.3051 1175.6992 439.1019 Q1168.3164 429.8988 1168.3164 414.7269 Q1168.3164 399.4926 1175.6992 390.2972 Q1183.082 381.1019 1195.1445 381.1019 Q1202.4102 381.1019 1207.6289 383.9691 Q1212.8477 386.8363 1216.1914 392.6332 L1216.1914 382.6801 L1226.9727 382.6801 L1226.9727 440.1644 Z" clip-path="url(#clipPath3)" stroke="none"/>
      <rect stroke-linecap="butt" x="556" y="37.9183" clip-path="url(#clipPath2)" fill="none" width="1000" height="600" stroke-miterlimit="1.45"/>
      <circle fill="rgb(83,123,240)" r="76.5" clip-path="url(#clipPath2)" cx="1473" cy="551.4183" stroke="none"/>
    </g>
    <g stroke-linecap="butt" font-size="130px" transform="matrix(1,0,0,1,-541,-22)" fill="white" text-rendering="geometricPrecision" font-family="sans-serif" shape-rendering="geometricPrecision" stroke="white" stroke-miterlimit="1.45">
      <text x="1431.645" xml:space="preserve" y="596.4232" clip-path="url(#clipPath2)" stroke="none">4</text>
    </g>
  </g>
</svg>
